<?xml version="1.0" standalone="no"?>
<!DOCTYPE svg PUBLIC "-//W3C//DTD SVG 20010904//EN"
 "http://www.w3.org/TR/2001/REC-SVG-20010904/DTD/svg10.dtd">
<svg version="1.0" xmlns="http://www.w3.org/2000/svg"
 width="3264.000000pt" height="3264.000000pt" viewBox="0 0 3264.000000 3264.000000"
 preserveAspectRatio="xMidYMid meet">

<g transform="translate(0.000000,3264.000000) scale(0.100000,-0.100000)"
fill="#000000" stroke="none">
<path d="M9670 22700 c-13 -8 -12 -10 3 -10 9 0 17 5 17 10 0 12 -1 12 -20 0z"/>
<path d="M9748 22689 c12 -16 77 -15 67 2 -3 4 -16 4 -29 -1 -16 -6 -28 -5
-37 3 -11 10 -11 9 -1 -4z"/>
<path d="M9923 22665 c0 -7 6 -12 13 -12 7 0 11 4 8 8 -2 4 4 10 13 12 10 3 7
4 -8 4 -14 -1 -26 -6 -26 -12z"/>
<path d="M9255 22660 c3 -5 8 -10 11 -10 2 0 4 5 4 10 0 6 -5 10 -11 10 -5 0
-7 -4 -4 -10z"/>
<path d="M9304 22656 c-5 -12 -48 -14 -247 -14 -192 1 -552 -7 -552 -12 0 -1
-29 -3 -65 -4 -188 -9 -266 -18 -283 -34 -13 -12 -15 -17 -5 -24 9 -5 6 -8
-10 -8 -13 0 -20 -4 -17 -10 3 -5 0 -10 -7 -11 -7 0 -29 -2 -48 -4 -30 -4 -37
0 -48 23 -12 25 -11 26 5 9 16 -16 18 -16 36 0 13 12 17 13 15 4 -5 -23 29
-20 52 4 l22 24 -93 -6 c-52 -3 -96 -7 -98 -9 -9 -8 22 -33 33 -27 6 4 4 -2
-4 -13 -8 -10 -16 -21 -18 -24 -2 -3 -2 3 0 14 2 12 -3 20 -14 21 -10 2 -18
-1 -18 -7 0 -6 -7 -7 -15 -4 -9 3 -18 -1 -22 -10 -5 -13 -7 -13 -14 -2 -7 11
-11 10 -18 -2 -5 -8 -8 -17 -5 -21 2 -4 0 -10 -5 -14 -6 -3 -8 3 -6 15 3 13
-1 20 -12 20 -12 0 -13 3 -5 13 6 7 25 12 42 11 19 -1 30 3 30 11 0 15 -29 13
-74 -5 -17 -6 -27 -6 -32 1 -4 7 -10 6 -19 -1 -7 -6 -24 -9 -38 -6 -14 2 -37
-2 -52 -10 -15 -8 -34 -14 -41 -14 -8 0 -14 -4 -14 -9 0 -11 38 -2 46 11 3 5
12 4 20 -3 11 -9 14 -8 15 7 0 11 3 14 6 7 2 -7 14 -13 24 -13 11 0 17 -4 14
-10 -3 -5 1 -10 9 -10 9 0 13 7 11 20 -2 11 0 22 5 25 5 3 7 -4 5 -15 -4 -20
10 -29 17 -11 2 5 10 2 18 -7 13 -14 12 -15 -4 -9 -13 5 -17 3 -13 -7 4 -11
-1 -12 -26 -6 -18 4 -40 11 -50 15 -13 6 -16 3 -11 -9 3 -9 1 -16 -6 -16 -6 0
-8 5 -5 10 4 6 -7 10 -24 10 -17 0 -31 -5 -31 -11 0 -5 -4 -7 -10 -4 -5 3 -10
2 -10 -3 0 -5 43 -9 95 -9 56 0 95 4 95 10 0 6 4 6 13 -1 6 -5 82 -12 167 -14
147 -4 193 -13 211 -40 3 -5 29 -11 58 -15 29 -3 67 -16 86 -28 18 -13 47 -26
63 -30 17 -3 41 -14 54 -24 13 -9 44 -25 71 -35 26 -10 47 -22 47 -27 0 -5 16
-15 35 -23 19 -8 35 -20 35 -26 0 -6 10 -14 23 -19 13 -5 36 -20 53 -34 16
-13 39 -27 51 -31 12 -4 25 -16 28 -27 4 -10 10 -19 15 -19 5 0 41 -33 80 -72
94 -96 102 -106 133 -155 14 -23 31 -44 37 -48 5 -3 10 -15 10 -25 0 -11 9
-24 19 -30 11 -5 25 -27 32 -47 7 -21 20 -44 30 -51 10 -7 21 -28 25 -47 3
-20 15 -47 26 -60 11 -14 23 -45 26 -68 3 -23 14 -54 24 -68 22 -29 37 -87 38
-139 0 -20 5 -41 12 -48 6 -6 13 -17 14 -24 20 -99 26 -167 26 -288 0 -119 3
-148 16 -163 12 -14 14 -22 5 -36 -9 -14 -8 -18 2 -18 8 0 13 5 12 11 -1 6 4
10 11 8 6 -1 11 4 10 10 -2 7 3 12 10 10 8 -1 11 2 7 8 -5 8 -11 8 -20 0 -9
-7 -16 -6 -25 4 -10 13 -8 15 8 11 11 -2 31 3 46 10 18 10 25 10 23 2 -1 -7 4
-11 12 -9 11 2 12 0 3 -11 -9 -11 -8 -14 3 -14 7 0 14 3 13 6 0 3 0 13 1 21 1
12 3 12 10 2 4 -8 11 -13 15 -13 3 1 5 -2 4 -6 -2 -5 -6 -7 -9 -6 -4 1 -6 -8
-5 -20 1 -16 -5 -22 -19 -21 -11 0 -19 5 -18 10 1 6 -4 11 -11 11 -7 0 -13 -6
-13 -14 0 -7 3 -11 5 -8 3 3 14 -3 25 -12 10 -10 22 -17 26 -15 3 1 7 -2 7 -8
3 -21 4 -22 17 -11 8 6 17 7 22 3 4 -4 1 3 -6 16 -8 12 -15 18 -17 12 -2 -6
-8 -7 -14 -4 -5 4 -3 13 6 22 14 16 16 21 16 40 0 4 5 0 11 -8 8 -12 9 -12 7
4 -2 16 3 20 32 20 26 1 34 5 32 16 -2 8 0 11 4 7 12 -12 14 -38 2 -31 -6 4
-8 2 -5 -4 4 -5 15 -9 25 -7 9 1 26 -5 37 -14 19 -15 19 -15 5 3 -13 17 -13
18 5 14 11 -2 19 -10 17 -18 -3 -11 0 -11 12 0 18 14 22 25 6 15 -16 -10 -12
1 6 15 12 11 15 11 12 0 -5 -25 26 -17 62 14 19 17 29 24 22 15 -6 -9 -8 -20
-4 -24 4 -5 2 -5 -5 -1 -17 10 -25 -10 -9 -23 9 -7 17 -8 20 -2 3 5 15 7 26 4
11 -3 17 -9 14 -14 -3 -5 -10 -7 -15 -3 -5 3 -9 2 -8 -3 3 -19 -2 -27 -9 -15
-6 8 -9 1 -9 -20 l0 -34 24 24 c13 13 21 27 18 31 -2 5 6 18 19 30 17 16 23
18 23 7 0 -8 -5 -12 -10 -9 -6 3 -8 2 -4 -3 10 -17 95 -9 116 10 17 16 19 22
8 35 -10 14 -10 14 4 4 10 -9 19 -9 26 -2 6 6 10 5 10 -5 0 -8 -3 -13 -7 -11
-11 7 -41 -31 -33 -40 5 -4 1 -4 -7 0 -13 8 -13 7 -1 -8 11 -14 17 -15 28 -5
19 16 41 19 49 7 4 -6 10 -6 18 0 8 7 21 6 39 -4 19 -9 29 -10 33 -3 5 7 2 8
-6 3 -9 -5 -11 -4 -6 4 6 9 11 9 22 0 17 -14 19 -23 2 -13 -7 4 -8 3 -4 -5 4
-6 13 -8 19 -4 22 14 57 14 57 1 0 -10 3 -9 9 1 5 8 7 21 4 30 -4 10 0 9 10
-4 10 -13 12 -24 6 -32 -12 -13 16 -12 28 2 4 4 2 5 -6 0 -10 -6 -12 -4 -7 4
6 9 11 9 21 1 10 -8 15 -8 21 1 4 7 3 9 -3 6 -5 -3 -10 0 -10 7 0 7 6 13 13
13 7 0 11 -4 8 -8 -2 -4 0 -10 6 -14 6 -4 7 -12 3 -18 -4 -7 1 -5 11 3 22 18
44 21 52 9 3 -6 11 -5 20 2 11 9 14 8 14 -6 0 -14 3 -15 14 -6 8 7 17 8 20 3
10 -16 55 -7 83 18 19 18 23 19 10 4 -9 -11 -14 -24 -10 -29 5 -4 3 -5 -3 -2
-6 3 -11 0 -11 -7 0 -7 6 -13 13 -13 7 0 11 4 8 8 -2 4 0 10 6 14 5 3 10 0 10
-7 0 -10 3 -9 9 2 6 8 8 17 6 20 -2 4 2 7 9 7 7 0 13 -6 13 -13 0 -7 -5 -10
-10 -7 -6 3 -7 1 -3 -6 6 -9 11 -9 23 1 9 7 19 13 22 13 3 0 5 3 4 6 -1 3 5 6
12 6 10 0 12 -4 5 -12 -8 -9 -5 -14 10 -18 11 -3 23 -1 26 4 3 5 11 6 17 2 7
-4 21 -9 32 -11 37 -7 40 -8 55 -17 21 -13 41 -15 34 -4 -3 5 -9 7 -14 4 -5
-3 -11 -2 -14 3 -2 4 6 8 20 8 13 0 24 -5 24 -10 0 -6 4 -4 9 4 6 8 8 17 6 20
-2 4 2 7 9 7 7 0 13 -6 13 -13 0 -7 -5 -10 -11 -7 -7 5 -7 2 0 -8 6 -8 14 -21
17 -29 4 -8 5 -4 4 10 -2 21 2 24 23 22 20 -3 22 -2 12 11 -10 11 -8 18 10 33
13 11 18 12 12 4 -19 -27 -2 -69 20 -51 9 8 13 7 13 -4 0 -8 -4 -12 -9 -9 -5
4 -4 -3 4 -15 7 -12 16 -22 20 -22 27 -5 38 -3 38 6 0 6 -9 11 -20 11 -32 2
-33 3 -20 19 7 8 16 12 21 9 5 -3 25 -7 44 -8 37 -4 45 9 23 34 -11 12 -10 12
3 2 10 -8 19 -8 27 -2 9 7 9 7 2 -2 -13 -15 -13 -41 -1 -34 5 4 11 2 13 -4 2
-6 13 -12 26 -15 13 -2 20 0 17 6 -4 5 -10 7 -15 4 -5 -3 -11 -2 -14 3 -3 5 9
8 27 8 18 -1 31 4 30 10 -1 6 5 11 12 11 10 0 12 -4 5 -12 -6 -7 -6 -15 0 -21
5 -5 11 -21 13 -34 4 -24 21 -31 23 -10 3 23 5 24 12 12 12 -17 49 -23 49 -8
0 7 -10 13 -21 12 -12 -1 -21 5 -21 12 0 6 -4 12 -10 12 -5 0 -10 -4 -10 -9 0
-19 -13 -21 -18 -2 -6 24 22 33 55 17 13 -6 49 -11 80 -10 34 0 56 -4 55 -10
-1 -5 4 -11 11 -12 25 -3 26 -6 7 -14 -17 -8 -15 -9 10 -6 26 2 29 6 29 34 -1
20 6 38 20 49 13 11 16 12 10 3 -6 -8 -10 -23 -9 -33 2 -10 -1 -14 -7 -11 -7
4 -8 2 -4 -4 4 -8 15 -8 31 -2 15 6 27 6 30 0 6 -10 -1 -14 -18 -11 -4 0 -6
-2 -6 -6 3 -20 -2 -26 -12 -13 -8 12 -9 11 -7 -5 2 -11 -2 -19 -8 -18 -9 2 -9
-4 0 -22 l11 -24 9 22 c10 23 12 32 15 45 1 4 5 1 9 -6 5 -7 18 -14 31 -17 12
-2 19 0 16 5 -3 5 -1 11 5 15 6 4 8 10 5 14 -8 14 84 9 96 -6 10 -11 15 -11
31 4 11 10 23 18 27 18 3 0 5 3 4 6 -1 3 4 6 12 6 8 0 13 -5 12 -11 -1 -6 10
-12 25 -14 18 -2 31 4 42 20 9 12 16 17 16 11 0 -7 -5 -15 -11 -18 -7 -5 -4
-13 7 -26 9 -10 22 -15 28 -12 19 13 58 15 51 3 -3 -6 -9 -8 -13 -6 -4 2 -15
-2 -25 -9 -14 -10 -15 -14 -4 -18 8 -3 25 4 38 16 29 26 59 36 41 14 -9 -10
-9 -14 1 -14 16 0 20 36 6 53 -6 8 -4 16 8 25 16 12 17 12 7 -1 -8 -11 -7 -22
2 -40 8 -14 14 -20 14 -15 0 6 10 -1 20 -14 11 -13 20 -19 20 -14 0 5 -4 13
-10 19 -6 6 7 9 41 8 28 0 54 -5 57 -10 12 -15 127 -11 147 6 11 8 16 10 12 4
-4 -7 0 -17 7 -23 11 -10 17 -8 25 6 6 10 11 13 11 7 0 -7 13 -14 29 -16 17
-2 28 -1 26 3 -3 4 2 12 10 19 8 7 12 17 9 22 -4 6 -10 5 -15 -3 -6 -10 -9
-10 -9 -2 0 16 17 26 25 13 4 -6 10 -8 14 -6 4 3 8 -1 8 -9 0 -8 -4 -12 -8
-10 -3 3 -12 -1 -18 -8 -8 -10 -3 -21 23 -46 21 -21 36 -29 40 -22 7 10 1 15
-16 13 -3 -1 -11 5 -17 12 -8 10 -6 18 10 31 21 20 53 30 43 14 -3 -5 -9 -7
-14 -4 -4 3 -13 -1 -19 -9 -9 -11 -7 -15 9 -19 11 -3 23 -1 26 4 4 6 10 6 17
0 21 -17 24 -16 48 4 12 11 19 15 16 8 -4 -6 -2 -15 3 -18 8 -5 6 -13 -6 -26
-9 -10 -21 -16 -26 -13 -5 3 -4 -3 4 -15 12 -19 13 -19 22 -3 6 9 11 20 12 25
1 4 2 10 3 15 1 4 6 0 12 -8 8 -13 9 -12 7 4 -2 15 4 19 34 20 20 1 47 -2 60
-7 39 -16 121 -14 142 3 11 8 16 10 13 3 -4 -6 -3 -14 3 -18 6 -4 7 -11 4 -17
-4 -7 -2 -8 5 -4 6 4 9 11 7 15 -3 4 1 8 9 8 8 0 14 -3 13 -6 0 -3 1 -9 2 -13
1 -5 3 -12 4 -18 0 -5 4 -10 9 -10 4 0 10 0 14 0 3 0 -2 9 -11 19 -10 11 -13
21 -7 25 5 4 17 -4 26 -16 12 -16 15 -18 13 -6 -2 9 2 17 7 17 13 1 14 -21 1
-38 -11 -15 -18 -47 -8 -36 4 4 8 11 8 16 1 5 2 12 3 15 0 4 8 1 16 -6 10 -9
15 -9 15 -1 0 6 -5 11 -11 11 -8 0 -7 6 2 17 12 14 12 16 0 8 -9 -5 -12 -4 -7
3 5 8 15 8 33 1 22 -8 24 -7 14 5 -9 11 -9 16 1 22 7 4 10 4 6 -1 -14 -15 13
-33 42 -28 20 3 30 0 30 -9 0 -10 3 -9 9 2 6 8 8 17 6 20 -2 4 2 7 9 7 7 0 13
-6 13 -13 0 -7 -5 -10 -11 -7 -6 4 -5 -1 3 -10 7 -9 17 -14 22 -11 14 8 11 16
-3 8 -8 -4 -10 -3 -5 2 5 5 14 9 20 9 7 1 11 6 10 11 -1 6 4 11 12 11 8 0 12
-3 10 -7 -3 -4 5 -16 16 -26 11 -10 19 -14 17 -9 -2 6 0 11 5 13 16 5 27 2 27
-9 0 -5 -4 -8 -8 -5 -4 2 -8 -6 -8 -20 0 -13 4 -24 8 -24 4 0 8 5 8 11 0 6 5
7 13 2 6 -4 20 -8 30 -8 9 0 16 -4 15 -10 -2 -5 -7 -9 -13 -7 -5 2 -7 0 -3 -4
4 -4 4 -12 -2 -18 -6 -8 -3 -12 11 -13 13 -1 19 4 17 15 -2 9 3 16 10 14 10
-2 10 2 0 18 -7 11 -16 20 -21 20 -4 0 -5 5 -1 12 5 7 3 8 -7 2 -37 -23 -60
-7 -29 21 10 9 16 24 13 33 -4 14 -3 15 6 2 7 -11 6 -19 -6 -32 -16 -17 -14
-18 25 -14 26 2 45 -1 52 -9 7 -8 26 -11 52 -9 32 3 38 1 30 -8 -7 -9 -7 -18
2 -30 10 -14 12 -11 13 23 0 21 -2 37 -6 34 -4 -2 -8 2 -8 9 0 7 6 13 13 13 7
0 13 -3 12 -6 -2 -21 3 -43 9 -38 3 4 17 -3 31 -15 13 -13 33 -23 45 -23 26 0
29 -22 8 -50 -9 -11 -10 -15 -2 -8 7 6 19 10 25 9 6 -2 7 -1 3 2 -4 2 -3 10 3
17 8 9 8 15 0 20 -6 3 -7 11 -4 17 4 6 2 8 -4 4 -6 -3 -14 -2 -17 4 -5 8 -11
8 -20 0 -14 -12 -40 11 -27 25 4 5 2 5 -5 1 -14 -8 -28 10 -14 18 5 4 16 -1
24 -9 22 -21 44 -20 26 2 -8 9 -13 19 -11 22 1 3 -2 6 -7 6 -5 0 -13 4 -18 9
-4 5 -3 6 3 3 10 -6 43 21 37 30 -2 1 0 3 5 3 4 0 7 -17 7 -37 0 -49 12 -68
31 -52 11 9 14 8 15 -7 1 -11 1 -23 -1 -29 -1 -5 4 -4 11 2 14 14 20 52 11 68
-9 14 -11 28 -17 125 -7 93 -12 122 -28 132 -14 9 -23 334 -9 351 18 22 42
120 42 172 0 31 8 66 20 90 11 22 25 67 30 100 6 41 16 66 30 77 12 10 21 25
20 35 -1 10 -1 20 0 23 8 22 8 50 0 50 -5 0 -7 6 -4 14 6 15 -29 32 -45 22 -5
-4 -11 -2 -13 4 -2 6 -14 12 -26 15 -19 3 -22 2 -12 -10 9 -11 7 -13 -7 -11
-10 2 -17 10 -16 17 3 14 -44 40 -81 46 -11 2 -39 10 -63 18 -24 8 -50 15 -58
15 -8 0 -15 8 -15 18 0 11 -8 18 -21 19 -17 2 -18 -1 -9 -13 7 -8 9 -14 4 -14
-12 0 -41 20 -30 20 5 0 3 6 -3 14 -13 15 -35 16 -48 1 -4 -4 -2 -5 5 -1 6 4
12 2 12 -4 0 -7 -6 -10 -12 -7 -7 2 -12 11 -10 21 2 10 -4 16 -17 16 -11 0
-23 5 -26 10 -3 6 -16 10 -29 10 -12 0 -26 4 -32 10 -5 5 -32 11 -59 14 -28 2
-54 5 -58 5 -5 1 -5 6 -2 11 4 6 10 8 15 5 5 -3 11 -1 15 5 4 6 11 8 16 4 5
-3 7 -9 5 -13 -3 -4 1 -8 8 -8 7 0 13 6 13 14 0 7 -2 11 -5 8 -3 -2 -14 2 -26
10 -26 19 -42 19 -27 1 10 -12 8 -13 -8 -9 -16 4 -21 1 -21 -13 0 -17 -2 -17
-15 -3 -9 9 -17 25 -17 35 -1 14 -9 20 -24 20 -13 0 -20 -4 -18 -8 3 -5 9 -6
14 -3 5 3 11 2 14 -3 2 -4 -4 -8 -14 -9 -11 -1 -22 2 -25 8 -4 5 -13 9 -21 9
-9 0 -22 7 -30 15 -9 8 -29 15 -45 15 -33 0 -40 15 -8 17 12 1 27 7 32 12 7 7
4 9 -11 6 -12 -2 -24 0 -27 6 -4 5 -16 9 -28 9 -12 0 -33 6 -47 13 -37 19 -94
22 -84 5 6 -10 5 -11 -8 -1 -8 7 -18 10 -22 6 -4 -4 -4 1 0 11 6 16 3 17 -29
13 -20 -3 -34 -1 -31 4 5 9 -14 12 -73 12 -28 0 -31 2 -21 16 7 9 8 13 3 8 -4
-4 -15 -1 -24 7 -9 8 -20 15 -26 16 -5 2 -20 6 -33 11 -31 12 -39 11 -45 -3
-3 -10 -8 -10 -18 1 -12 12 -12 13 0 6 10 -6 12 -4 7 4 -6 8 -12 9 -20 2 -9
-8 -19 -4 -34 12 -23 25 -19 45 5 25 11 -9 16 -9 23 1 6 11 10 10 17 -4 6 -9
24 -18 42 -20 25 -2 29 0 21 11 -6 7 -20 11 -30 9 -10 -2 -24 2 -30 10 -6 7
-24 12 -40 11 -17 -1 -30 1 -30 6 0 4 -5 8 -11 8 -5 0 -7 -6 -3 -12 4 -7 -2
-4 -14 6 -12 11 -22 14 -22 8 0 -14 -40 -3 -63 17 -10 8 -17 11 -15 6 2 -6 -1
-10 -7 -10 -5 0 -9 3 -8 6 1 4 -11 6 -27 5 -17 -1 -30 1 -30 5 0 3 -14 12 -31
19 -26 11 -32 11 -40 -1 -5 -8 -9 -10 -9 -5 0 5 -7 3 -15 -4 -11 -9 -12 -16
-5 -26 9 -9 7 -12 -7 -9 -10 2 -22 4 -28 4 -5 1 1 8 14 17 26 18 17 36 -21 40
-13 1 -41 7 -63 12 -120 29 -194 43 -223 44 -17 0 -35 4 -38 9 -3 5 -20 9 -39
9 -19 0 -37 5 -40 10 -3 6 -28 10 -55 10 -27 0 -51 4 -54 8 -3 5 -24 9 -47 10
-24 1 -45 5 -48 10 -3 4 -37 9 -76 10 -38 2 -74 8 -79 13 -6 5 -33 9 -61 9
-28 0 -55 4 -61 9 -5 4 -56 14 -114 20 -58 7 -134 17 -170 23 -36 5 -94 12
-130 15 -36 2 -69 9 -75 15 -7 8 -6 8 4 3 9 -5 12 -4 8 3 -4 6 -24 8 -49 5
-30 -5 -39 -3 -34 6 6 9 -3 11 -32 7 -23 -3 -42 -1 -44 4 -2 5 -39 12 -83 15
-44 3 -102 8 -128 11 -38 4 -47 2 -41 -8 6 -10 4 -10 -9 1 -10 8 -34 12 -61
10 -24 -2 -42 0 -39 4 3 5 -3 7 -13 6 -11 -2 -28 2 -39 7 -22 12 -64 12 -82 1
-7 -4 -15 -2 -19 4 -4 8 -9 7 -15 -2 -6 -9 -9 -10 -9 -2 0 12 -17 12 -37 0 -9
-6 -11 -3 -7 7 4 11 0 16 -10 16 -9 0 -16 -4 -16 -10 0 -6 -9 -6 -24 0 -13 5
-27 6 -30 2 -10 -10 -37 -11 -30 -1 3 5 -2 9 -10 9 -21 0 -31 -4 -29 -10 1 -3
-10 -5 -23 -5 -13 0 -24 3 -24 7 0 4 -13 6 -30 6 -18 -1 -27 -5 -23 -12 4 -6
0 -5 -9 2 -10 8 -58 15 -125 18 -78 4 -104 3 -93 -5 12 -9 11 -11 -8 -11 -13
0 -21 4 -17 9 3 6 -5 8 -19 5 -13 -2 -36 0 -51 6 -20 7 -27 7 -31 -4z m-872
-59 c18 16 18 16 12 0 -7 -19 -5 -18 -56 -21 -42 -3 -46 1 -20 20 14 11 20 10
31 -1 13 -13 17 -12 33 2z m328 -3 c0 -2 -11 -3 -24 -2 -14 1 -23 5 -20 9 4 7
44 0 44 -7z m87 10 c-3 -3 -12 -4 -19 -1 -8 3 -5 6 6 6 11 1 17 -2 13 -5z
m-516 -21 c13 -16 12 -17 -3 -4 -17 13 -22 21 -14 21 2 0 10 -8 17 -17z m1950
-1 c-7 -2 -18 1 -23 6 -8 8 -4 9 13 5 13 -4 18 -8 10 -11z m-2007 0 c3 -5 -1
-9 -9 -9 -8 0 -12 4 -9 9 3 4 7 8 9 8 2 0 6 -4 9 -8z m2083 2 c-3 -3 -12 -4
-19 -1 -8 3 -5 6 6 6 11 1 17 -2 13 -5z m-2137 -16 l-25 -11 27 -6 c21 -5 25
-9 18 -21 -5 -8 -10 -10 -10 -4 0 6 -12 11 -27 9 -16 -1 -37 2 -48 6 -19 8
-19 9 2 6 12 -1 22 2 22 8 -1 10 28 24 51 24 8 0 4 -5 -10 -11z m2217 6 c-3
-3 -12 -4 -19 -1 -8 3 -5 6 6 6 11 1 17 -2 13 -5z m-2162 -33 c3 -5 2 -12 -3
-15 -5 -3 -9 1 -9 9 0 17 3 19 12 6z m2830 -91 c3 -5 -1 -10 -10 -10 -9 0 -13
5 -10 10 3 6 8 10 10 10 2 0 7 -4 10 -10z m135 -20 c0 -5 -5 -10 -11 -10 -5 0
-7 5 -4 10 3 6 8 10 11 10 2 0 4 -4 4 -10z m85 -19 c2 -4 -9 -5 -26 -3 -16 2
-31 7 -34 11 -2 4 9 5 26 3 16 -2 31 -7 34 -11z m135 -2 c14 2 22 0 18 -4 -14
-15 -68 -13 -68 2 0 9 5 11 13 6 6 -4 23 -6 37 -4z m102 -23 c3 2 5 -3 5 -11
0 -8 -4 -15 -9 -15 -4 0 -8 5 -8 11 0 5 -4 8 -9 5 -5 -3 -14 1 -21 9 -11 14
-10 14 12 6 14 -5 28 -8 30 -5z m283 -58 c3 -2 -18 -5 -45 -7 -28 -1 -50 2
-50 6 0 8 87 9 95 1z m32 5 c-12 -11 13 -31 32 -26 11 3 18 -1 18 -11 0 -8 -5
-12 -11 -8 -6 4 -19 7 -28 8 -53 4 -54 5 -33 14 11 5 16 9 12 9 -9 1 1 21 10
21 4 0 3 -3 0 -7z m-60 -39 c-3 -3 -12 -4 -19 -1 -8 3 -5 6 6 6 11 1 17 -2 13
-5z m160 -16 c-3 -8 -6 -5 -6 6 -1 11 2 17 5 13 3 -3 4 -12 1 -19z m43 17 c0
-2 -6 -8 -13 -14 -10 -8 -14 -7 -14 2 0 8 6 14 14 14 7 0 13 -1 13 -2z m100
-25 c0 -5 -5 -10 -11 -10 -5 0 -7 5 -4 10 3 6 8 10 11 10 2 0 4 -4 4 -10z m37
-25 c0 -6 -6 -12 -12 -12 -6 0 -12 6 -12 12 0 6 6 12 12 12 6 0 12 -6 12 -12z
m70 -12 c-9 -2 -15 -8 -12 -13 3 -4 -4 -6 -15 -3 -27 7 -18 18 17 20 15 0 20
-1 10 -4z m65 -6 c7 -8 22 -12 33 -9 11 3 18 2 15 -1 -9 -10 -61 -16 -55 -6 4
5 -1 9 -10 9 -9 0 -13 -4 -10 -10 3 -5 2 -10 -4 -10 -5 0 -9 9 -8 20 1 23 20
26 39 7z m68 -39 c0 -4 -9 -8 -21 -8 -11 0 -18 4 -15 8 3 5 12 9 21 9 8 0 15
-4 15 -9z m274 -100 c-3 -4 2 -11 10 -14 9 -3 16 -11 16 -17 0 -5 -8 -3 -18 6
-10 10 -21 15 -24 12 -2 -3 -5 1 -5 8 0 8 6 14 13 14 7 0 11 -4 8 -9z m146
-48 c0 -5 -4 -10 -9 -10 -6 0 -13 5 -16 10 -3 6 1 10 9 10 9 0 16 -4 16 -10z
m64 -8 c15 -18 15 -19 -17 -18 -19 1 -34 6 -34 12 0 6 9 9 20 6 14 -3 18 -1
13 6 -11 18 -1 14 18 -6z m921 -362 c3 -5 2 -10 -4 -10 -5 0 -13 5 -16 10 -3
6 -2 10 4 10 5 0 13 -4 16 -10z m-14 -47 c13 -16 12 -17 -3 -4 -10 7 -18 15
-18 17 0 8 8 3 21 -13z m-4331 -607 c0 -2 -8 -10 -17 -17 -16 -13 -17 -12 -4
4 13 16 21 21 21 13z m-3 -71 c0 -8 -4 -12 -9 -9 -5 3 -6 10 -3 15 9 13 12 11
12 -6z m97 -123 c3 -5 -1 -9 -9 -9 -8 0 -12 4 -9 9 3 4 7 8 9 8 2 0 6 -4 9 -8z
m34 -13 c9 -12 9 -16 -1 -16 -7 0 -14 9 -14 20 -1 11 -1 18 0 16 2 -2 8 -11
15 -20z m69 -4 c0 -6 -6 -12 -12 -12 -6 0 -12 6 -12 12 0 6 6 12 12 12 6 0 12
-6 12 -12z m280 -20 c0 -6 -6 -12 -12 -12 -6 0 -12 6 -12 12 0 6 6 12 12 12 6
0 12 -6 12 -12z m63 9 c0 -8 -19 -13 -24 -6 -3 5 1 9 9 9 8 0 15 -2 15 -3z
m208 -25 c9 -12 9 -16 -1 -16 -7 0 -14 9 -14 20 -1 11 -1 18 0 16 2 -2 8 -11
15 -20z m-168 5 c0 -8 -19 -13 -24 -6 -3 5 1 9 9 9 8 0 15 -2 15 -3z m237 -17
c1 -11 1 -18 0 -16 -2 2 -8 11 -15 20 -9 12 -9 16 1 16 7 0 14 -9 14 -20z m97
-8 c-3 -5 -10 -7 -15 -3 -5 3 -7 10 -3 15 3 5 10 7 15 3 5 -3 7 -10 3 -15z
m76 15 c0 -8 -19 -13 -24 -6 -3 5 1 9 9 9 8 0 15 -2 15 -3z m-310 -10 c0 -8
-19 -13 -24 -6 -3 5 1 9 9 9 8 0 15 -2 15 -3z m180 2 c0 -2 -8 -10 -17 -17
-16 -13 -17 -12 -4 4 13 16 21 21 21 13z m157 -9 c0 -8 -6 -14 -14 -14 -9 0
-10 4 -2 14 6 7 12 13 14 13 1 0 2 -6 2 -13z m83 8 c0 -2 -6 -8 -13 -14 -10
-8 -14 -7 -14 2 0 8 6 14 14 14 7 0 13 -1 13 -2z m154 -13 c3 -5 -1 -9 -9 -9
-8 0 -12 4 -9 9 3 4 7 8 9 8 2 0 6 -4 9 -8z m69 -7 c-3 -9 -8 -14 -10 -11 -3
3 -2 9 2 15 9 16 15 13 8 -4z m-198 -4 c3 -5 2 -12 -3 -15 -5 -3 -9 1 -9 9 0
17 3 19 12 6z m239 -12 c-3 -5 -10 -7 -15 -3 -5 3 -7 10 -3 15 3 5 10 7 15 3
5 -3 7 -10 3 -15z m112 6 c-3 -19 -13 -28 -32 -31 -12 -2 -10 4 7 22 26 28 28
29 25 9z m55 -2 c13 -16 12 -17 -3 -4 -10 7 -18 15 -18 17 0 8 8 3 21 -13z
m-1071 -7 c0 -2 -8 -10 -17 -17 -16 -13 -17 -12 -4 4 13 16 21 21 21 13z
m1185 -5 c3 -5 2 -12 -3 -15 -5 -3 -9 1 -9 9 0 17 3 19 12 6z m42 -9 c-10 -10
-14 -22 -10 -27 5 -4 2 -5 -5 -1 -11 6 -10 12 4 27 9 10 19 19 22 19 3 0 -2
-8 -11 -18z m192 -16 c-3 -3 -11 5 -18 17 -13 21 -12 21 5 5 10 -10 16 -20 13
-22z m-469 18 c0 -8 -19 -13 -24 -6 -3 5 1 9 9 9 8 0 15 -2 15 -3z m404 -2 c3
-5 -1 -9 -9 -9 -8 0 -12 4 -9 9 3 4 7 8 9 8 2 0 6 -4 9 -8z m103 -17 c0 -6 -6
-12 -12 -12 -6 0 -12 6 -12 12 0 6 6 12 12 12 6 0 12 -6 12 -12z m174 -2 c13
-16 12 -17 -3 -5 -11 9 -18 10 -23 2 -3 -5 -11 -10 -18 -10 -8 0 19 27 29 30
1 0 8 -8 15 -17z m-143 -15 c10 -12 10 -18 1 -24 -7 -4 -9 -3 -5 4 3 6 2 13
-4 17 -5 3 -10 11 -10 17 0 6 1 9 3 7 1 -2 8 -11 15 -21z m69 -5 c0 -9 -4 -10
-14 -2 -7 6 -13 12 -13 14 0 1 6 2 13 2 8 0 14 -6 14 -14z m217 -23 c10 -13 9
-13 -6 -1 -10 7 -18 21 -17 30 0 13 1 14 6 1 3 -8 11 -22 17 -30z m26 34 c0
-8 -19 -13 -24 -6 -3 5 1 9 9 9 8 0 15 -2 15 -3z m120 -3 c0 -3 -11 -14 -24
-23 -23 -17 -30 -8 -14 18 7 11 38 15 38 5z m44 1 c3 -5 -1 -9 -9 -9 -8 0 -12
4 -9 9 3 4 7 8 9 8 2 0 6 -4 9 -8z m-133 -29 c13 -16 12 -17 -3 -4 -10 7 -18
15 -18 17 0 8 8 3 21 -13z m173 -4 c-3 -5 -10 -7 -15 -3 -5 3 -7 10 -3 15 3 5
10 7 15 3 5 -3 7 -10 3 -15z m-374 -4 c4 3 10 -5 13 -16 5 -20 5 -20 -14 -3
-10 9 -19 22 -18 28 0 6 3 6 6 -2 2 -6 8 -10 13 -7z m620 9 c0 -8 -19 -13 -24
-6 -3 5 1 9 9 9 8 0 15 -2 15 -3z m-133 -21 c0 -9 -4 -10 -14 -2 -7 6 -13 12
-13 14 0 1 6 2 13 2 8 0 14 -6 14 -14z m160 4 c0 -8 -6 -14 -14 -14 -9 0 -10
4 -2 14 6 7 12 13 14 13 1 0 2 -6 2 -13z m83 8 c0 -2 -6 -8 -13 -14 -10 -8
-14 -7 -14 2 0 8 6 14 14 14 7 0 13 -1 13 -2z m-601 -41 c-9 -11 -15 -12 -25
-3 -11 9 -12 15 -3 25 9 11 15 12 25 3 11 -9 12 -15 3 -25z m134 15 c-8 -8
-13 -7 -18 2 -5 8 -4 10 3 5 7 -4 12 -2 12 5 0 7 3 9 7 6 4 -4 2 -12 -4 -18z
m164 -4 c0 -8 -4 -12 -9 -9 -5 3 -6 10 -3 15 9 13 12 11 12 -6z m334 -2 c11
-15 11 -16 -1 -6 -11 10 -17 9 -32 -4 -10 -9 -18 -13 -18 -8 0 6 28 33 36 35
1 0 8 -8 15 -17z m69 11 c0 -8 -19 -13 -24 -6 -3 5 1 9 9 9 8 0 15 -2 15 -3z
m89 -7 c8 -10 7 -14 -2 -14 -8 0 -14 6 -14 14 0 7 1 13 2 13 2 0 8 -6 14 -13z
m182 0 c-6 -8 -9 -16 -6 -19 3 -2 -2 -5 -10 -5 -13 0 -13 3 2 19 19 21 31 25
14 5z m63 -5 c3 -5 -1 -9 -9 -9 -8 0 -12 4 -9 9 3 4 7 8 9 8 2 0 6 -4 9 -8z
m103 -17 c0 -6 -6 -12 -12 -12 -6 0 -12 6 -12 12 0 6 6 12 12 12 6 0 12 -6 12
-12z m63 12 c0 -2 -15 -16 -32 -33 -18 -16 -28 -23 -21 -15 6 7 9 21 6 30 -4
12 -3 13 4 3 8 -10 12 -10 23 3 12 14 20 19 20 12z m-126 -15 c3 -5 -1 -9 -9
-9 -8 0 -12 4 -9 9 3 4 7 8 9 8 2 0 6 -4 9 -8z m305 -15 c0 -9 -2 -8 -6 1 -2
6 -10 9 -15 6 -7 -4 -8 -2 -4 5 9 13 26 5 25 -12z m-112 7 c-8 -8 -48 -13 -43
-6 2 4 14 8 26 9 12 1 20 0 17 -3z m150 -9 c0 -6 -6 -12 -12 -12 -6 0 -12 6
-12 12 0 6 6 12 12 12 6 0 12 -6 12 -12z m60 -8 c1 -11 1 -18 0 -16 -2 2 -8
11 -15 20 -9 12 -9 16 1 16 7 0 14 -9 14 -20z m43 -2 c0 -2 -6 -8 -13 -14 -10
-8 -14 -7 -14 2 0 8 6 14 14 14 7 0 13 -1 13 -2z m169 -8 c8 -10 7 -14 -2 -14
-8 0 -14 6 -14 14 0 7 1 13 2 13 2 0 8 -6 14 -13z m71 7 c0 -8 -19 -13 -24 -6
-3 5 1 9 9 9 8 0 15 -2 15 -3z m86 -33 c-9 -10 -14 -20 -11 -23 3 -2 -1 -5 -8
-5 -7 0 -14 10 -15 21 -1 17 1 18 8 6 5 -8 10 -12 11 -7 1 4 3 12 4 17 1 6 3
13 4 16 0 3 6 2 12 -1 7 -5 5 -13 -5 -24z m84 23 c0 -8 -19 -13 -24 -6 -3 5 1
9 9 9 8 0 15 -2 15 -3z m-130 -8 c0 -2 -8 -10 -17 -17 -16 -13 -17 -12 -4 4
13 16 21 21 21 13z"/>
<path d="M10078 22663 c12 -2 20 -8 17 -13 -3 -4 3 -7 12 -6 9 2 19 9 21 17 3
12 2 12 -6 0 -7 -9 -12 -10 -16 -2 -4 6 -17 10 -29 10 -22 -2 -22 -2 1 -6z"/>
<path d="M10235 22658 c-20 -7 -20 -8 0 -6 11 2 25 -1 31 -4 6 -4 11 -1 11 6
0 15 -15 16 -42 4z"/>
<path d="M7920 22581 c0 -5 9 -11 19 -14 14 -3 18 -1 14 9 -6 15 -33 19 -33 5z"/>
<path d="M7600 22516 c0 -2 8 -10 18 -17 15 -13 16 -12 3 4 -13 16 -21 21 -21
13z"/>
<path d="M7568 22488 c5 -5 16 -8 23 -6 8 3 3 7 -10 11 -17 4 -21 3 -13 -5z"/>
<path d="M7364 22463 c2 -10 6 -17 10 -16 15 3 16 11 2 22 -12 10 -14 9 -12
-6z"/>
<path d="M7223 22385 c0 -8 4 -12 9 -9 5 3 6 10 3 15 -9 13 -12 11 -12 -6z"/>
<path d="M7123 22348 c1 -10 2 -18 4 -18 1 0 7 8 12 18 7 14 6 19 -4 19 -7 0
-13 -9 -12 -19z"/>
<path d="M7080 22355 c0 -2 6 -8 13 -14 10 -8 14 -7 14 2 0 8 -6 14 -14 14 -7
0 -13 -1 -13 -2z"/>
<path d="M6980 22335 c0 -2 6 -8 13 -14 10 -8 14 -7 14 2 0 8 -6 14 -14 14 -7
0 -13 -1 -13 -2z"/>
<path d="M7020 22328 c0 -4 9 -8 20 -8 11 0 22 0 25 0 3 0 5 3 5 7 0 4 -11 8
-25 9 -14 0 -25 -3 -25 -8z"/>
<path d="M6934 22261 c7 -11 -49 -35 -62 -27 -5 3 -15 -1 -22 -9 -7 -8 -16
-12 -22 -9 -5 3 -15 0 -23 -6 -8 -7 -15 -9 -15 -4 0 5 -7 1 -15 -10 -8 -10
-19 -15 -26 -10 -9 5 -10 2 -6 -9 3 -9 -1 -18 -9 -21 -29 -11 -38 -6 -18 9 18
15 18 15 -6 13 -17 -2 -25 -9 -24 -21 1 -9 -5 -17 -15 -18 -9 -1 -25 -2 -36
-3 -12 0 -19 -7 -17 -16 3 -12 0 -12 -15 2 -15 13 -20 14 -30 3 -7 -8 -23 -12
-35 -10 -23 4 -23 4 -3 -11 l20 -16 -20 4 c-11 2 -19 -2 -18 -8 2 -8 -10 -10
-33 -7 -34 5 -36 3 -29 -19 5 -19 4 -20 -5 -5 -14 22 -33 22 -54 -2 -17 -19
-17 -19 1 -16 10 1 17 8 15 16 -2 10 0 10 11 0 12 -9 12 -17 3 -36 -11 -23
-11 -23 -18 -4 -4 11 -13 17 -18 14 -8 -5 -8 -11 0 -20 7 -9 6 -16 -5 -25 -8
-7 -12 -17 -8 -24 3 -6 2 -8 -2 -3 -5 4 -20 -3 -34 -15 l-26 -23 20 24 c11 13
19 33 18 45 -3 20 -2 20 6 1 7 -14 10 -16 11 -5 1 8 3 23 5 32 4 24 -10 31
-35 18 -16 -9 -25 -8 -36 1 -8 6 -17 9 -21 5 -3 -3 0 -6 8 -6 8 0 4 -8 -11
-20 l-25 -19 30 5 c16 3 34 9 41 15 15 13 12 -37 -4 -53 -7 -7 -12 -18 -12
-25 0 -18 -17 -16 -24 3 -3 8 -11 12 -16 9 -7 -5 -8 -11 -1 -19 14 -16 -15
-33 -54 -32 -24 1 -30 5 -29 22 1 23 -10 25 -36 9 -8 -5 -18 -10 -22 -10 -3 0
-9 -3 -13 -7 -4 -3 0 -5 9 -4 8 1 19 5 22 9 11 11 34 -14 34 -37 0 -12 -3 -16
-8 -10 -9 14 -37 10 -56 -9 -8 -7 -29 -19 -48 -26 -18 -7 -44 -18 -58 -24 -14
-6 -30 -10 -36 -9 -6 1 -21 -9 -34 -24 -18 -18 -20 -23 -7 -18 9 3 17 11 17
16 0 6 6 5 15 -2 19 -16 3 -40 -23 -35 -9 1 -26 -6 -37 -16 -11 -10 -24 -19
-30 -20 -22 -4 -35 -12 -35 -21 0 -6 6 -5 15 2 8 7 15 9 15 5 0 -4 6 -2 14 4
11 10 18 7 30 -11 l17 -23 -5 25 c-2 15 -9 24 -17 22 -8 -2 -10 0 -6 4 12 13
37 13 34 1 -1 -6 4 -12 11 -13 6 -1 15 -2 18 -3 4 0 0 -9 -7 -18 -10 -11 -10
-14 -1 -9 6 4 12 2 12 -3 0 -6 -8 -11 -18 -11 -10 0 -24 -6 -31 -12 -8 -8 -11
-8 -8 -2 9 16 -19 39 -28 24 -4 -6 -1 -9 7 -8 7 2 11 -4 9 -12 -3 -13 -8 -40
-10 -62 -2 -19 -18 -6 -17 13 1 14 -6 23 -16 25 -10 1 -16 -3 -15 -9 1 -7 -8
-11 -20 -11 -13 1 -23 -3 -23 -8 0 -4 -11 -13 -24 -19 -27 -13 -25 -39 2 -34
9 1 22 0 27 -4 6 -3 14 -6 19 -6 5 0 10 -8 12 -17 1 -10 -3 -16 -9 -15 -6 1
-16 -9 -23 -21 -12 -24 -21 -20 -20 8 1 8 6 15 13 15 21 0 24 12 3 18 -19 5
-35 -7 -35 -28 0 -5 -9 -10 -20 -10 -12 1 -19 7 -17 15 3 12 1 12 -9 3 -29
-29 -14 -50 19 -29 12 7 12 4 2 -14 -7 -12 -17 -19 -26 -16 -8 3 -14 -1 -14
-9 0 -14 23 -11 46 6 6 5 15 5 19 1 5 -4 5 -2 1 5 -10 17 10 25 23 9 12 -14
34 -16 39 -3 5 17 1 19 -15 6 -15 -12 -15 -10 1 8 10 12 23 21 29 20 6 -1 11
8 12 21 0 27 20 30 20 2 0 -11 5 -20 10 -19 6 0 9 7 7 15 -2 8 1 14 5 15 4 0
16 2 26 4 11 2 16 0 12 -3 -4 -4 -11 -7 -17 -7 -6 0 -12 -8 -14 -17 -3 -23
-40 -61 -52 -54 -5 3 -15 -1 -22 -8 -6 -8 -20 -13 -31 -11 -12 2 -19 -2 -19
-11 0 -8 -7 -15 -15 -15 -15 -1 -28 -4 -42 -9 -5 -1 -11 -2 -15 -1 -5 0 -7 -2
-7 -7 1 -4 0 -10 -1 -14 -1 -5 -3 -12 -4 -18 0 -5 -5 -9 -11 -7 -5 1 -9 5 -8
10 2 4 -2 7 -8 7 -6 0 -9 -6 -6 -14 6 -14 -25 -30 -50 -27 -7 1 -13 -3 -13 -9
0 -5 7 -10 16 -10 9 0 12 -5 8 -12 -5 -7 -3 -8 7 -2 20 12 38 14 44 4 6 -10
35 -2 35 10 0 4 -14 6 -30 5 -24 -2 -28 0 -20 10 6 7 24 11 40 10 16 -1 27 1
24 6 -3 5 -11 6 -17 2 -8 -5 -8 -2 0 9 7 8 11 17 8 20 -3 3 3 11 12 19 16 13
17 12 5 -3 -13 -16 -2 -35 12 -21 14 15 56 14 56 -1 0 -20 -17 -29 -26 -15 -5
8 -3 9 6 4 9 -5 11 -4 6 4 -4 6 -12 9 -17 5 -5 -3 -7 -9 -4 -13 2 -5 -5 -17
-17 -27 -12 -11 -18 -13 -13 -5 5 10 4 12 -4 7 -6 -4 -9 -11 -6 -16 3 -5 -6
-17 -20 -28 -26 -21 -34 -54 -12 -49 7 1 11 -7 10 -23 -2 -17 0 -20 5 -9 4 9
18 15 34 14 23 -2 26 1 17 12 -8 9 -15 10 -24 3 -9 -8 -15 -8 -20 0 -3 5 0 10
7 11 7 0 21 2 31 4 9 2 15 -1 11 -6 -3 -5 2 -9 10 -9 8 0 18 5 22 12 5 7 12 5
22 -8 12 -15 13 -15 9 -2 -6 18 18 45 27 30 3 -5 2 -12 -1 -16 -12 -12 -11
-33 1 -33 7 0 13 12 13 26 1 51 3 56 27 56 13 0 22 -3 19 -7 -4 -8 1 -9 47
-12 11 0 19 -5 18 -11 -2 -5 -5 -9 -8 -8 -3 1 -10 -9 -17 -23 -6 -13 -7 -22
-2 -18 5 3 9 1 9 -4 0 -5 -12 -15 -27 -23 -16 -8 -36 -24 -46 -36 -17 -22 -65
-34 -52 -14 3 5 1 13 -5 16 -6 4 -9 1 -8 -7 2 -7 -3 -12 -10 -10 -8 1 -12 -3
-10 -10 5 -14 53 -29 63 -20 9 10 215 10 209 0 -3 -5 -9 -6 -14 -3 -16 10 -20
-13 -4 -26 12 -10 15 -10 12 2 -2 10 6 14 29 13 18 0 30 3 27 8 -3 4 -9 6 -14
3 -5 -3 -11 -1 -14 4 -8 12 36 9 50 -4 8 -6 9 -14 3 -22 -6 -7 -6 -13 0 -17 5
-4 12 -2 16 4 3 5 3 10 -1 10 -4 0 0 8 9 18 14 15 15 19 2 19 -8 0 -11 -5 -8
-10 3 -6 1 -7 -6 -3 -16 10 -5 25 17 21 9 -2 17 -4 17 -5 0 -5 77 -5 80 0 2 3
6 33 9 67 6 68 13 91 32 114 8 8 16 42 18 75 5 62 14 95 28 105 5 3 11 15 13
25 2 10 4 20 5 22 2 1 3 5 4 10 1 4 6 21 10 38 4 18 16 40 26 49 10 9 22 29
25 45 3 15 15 37 25 48 11 11 22 32 26 47 4 14 17 30 29 35 14 5 25 20 28 39
4 17 18 41 32 53 14 12 25 29 25 37 0 9 9 22 20 29 11 7 20 19 20 28 0 8 13
20 29 25 19 7 31 19 33 32 2 14 11 23 26 25 12 2 23 8 23 13 1 5 2 14 3 19 0
6 12 16 26 23 14 7 25 18 25 24 0 15 12 26 31 29 8 1 24 14 35 28 11 15 25 24
30 21 5 -4 17 -1 26 4 10 6 14 11 9 11 -5 0 -1 10 10 22 10 12 13 18 7 14 -7
-4 -13 -2 -13 3 0 6 -5 11 -11 11 -5 0 -8 -4 -5 -9z m-95 -74 c0 -8 -2 -8 -6
1 -4 10 -10 9 -27 -5 l-21 -18 19 22 c19 23 37 22 35 0z m-119 -78 c0 -5 -10
-9 -21 -9 -17 0 -19 -3 -10 -13 8 -10 7 -14 -4 -14 -9 0 -15 10 -15 23 0 18 4
21 22 16 16 -4 19 -2 13 8 -5 9 -4 11 3 6 7 -4 12 -11 12 -17z m56 9 c4 -7 4
-10 -1 -6 -4 4 -15 2 -24 -5 -14 -11 -14 -10 -2 6 16 20 18 21 27 5z m-119
-13 c0 -8 -4 -12 -9 -9 -5 3 -6 10 -3 15 9 13 12 11 12 -6z m-188 -88 c-2 -1
-13 -9 -24 -17 -19 -14 -19 -14 -6 3 7 9 18 17 24 17 6 0 8 -1 6 -3z m91 -61
c0 -2 -8 -10 -17 -17 -16 -13 -17 -12 -4 4 13 16 21 21 21 13z m-443 -138 c-3
-8 -6 -5 -6 6 -1 11 2 17 5 13 3 -3 4 -12 1 -19z m43 18 c0 -2 -8 -10 -17 -17
-16 -13 -17 -12 -4 4 13 16 21 21 21 13z m-60 -22 c0 -8 -19 -13 -24 -6 -3 5
1 9 9 9 8 0 15 -2 15 -3z m-66 -13 c3 -5 -1 -14 -8 -20 -12 -10 -14 -9 -11 6
2 10 4 19 4 21 2 5 10 2 15 -7z m-36 -58 c0 -39 6 -48 22 -38 8 5 8 11 0 20
-7 9 -6 16 4 24 11 9 13 7 12 -11 -1 -18 4 -23 22 -22 17 1 20 -2 12 -11 -6
-7 -19 -11 -29 -8 -9 2 -23 -3 -30 -11 -16 -19 -46 -22 -34 -3 12 19 15 60 4
53 -5 -4 -8 -16 -6 -27 4 -17 2 -19 -11 -8 -13 10 -12 15 6 34 13 14 17 24 10
31 -7 7 -6 11 4 11 9 0 14 -11 14 -34z m84 24 c3 4 4 3 2 -4 -4 -18 8 -24 25
-11 13 10 14 10 4 -2 -16 -17 -43 -22 -40 -7 1 7 -4 11 -10 10 -7 -2 -13 4
-13 13 0 13 3 14 14 5 8 -7 16 -8 18 -4z m-157 -177 c3 -5 1 -10 -4 -10 -6 0
-11 5 -11 10 0 6 2 10 4 10 3 0 8 -4 11 -10z m-66 -9 c2 -1 -4 -10 -14 -21
-12 -14 -22 -17 -30 -10 -7 6 -15 6 -23 -2 -7 -7 -12 -8 -12 -4 0 14 44 44 60
41 8 -2 17 -4 19 -4z m135 -40 c3 -4 -5 -18 -17 -29 l-23 -22 0 25 c0 19 3 22
13 13 12 -10 17 -4 14 15 -1 10 7 9 13 -2z m-156 -253 c-2 -7 2 -12 8 -11 6 1
11 -4 11 -11 0 -13 -54 -16 -74 -3 -6 4 -15 3 -18 -3 -4 -6 -1 -9 6 -8 6 2 13
-2 16 -9 3 -8 -7 -11 -29 -9 -18 2 -39 -1 -45 -7 -7 -5 -13 -7 -13 -3 0 3 0 9
0 14 0 4 6 7 13 7 6 0 13 6 13 13 3 25 6 27 14 7 7 -16 9 -17 9 -3 1 11 8 16
21 13 11 -2 20 0 20 6 0 5 5 9 11 9 5 0 7 -4 4 -10 -3 -5 1 -10 9 -10 9 0 15
3 15 8 -2 12 1 22 6 22 3 0 4 -6 3 -12z m185 -4 c-2 -5 -12 -10 -23 -10 -11
-1 -21 -2 -22 -4 -10 -8 -39 -6 -45 2 -3 7 -1 8 5 4 7 -4 12 -2 12 4 0 7 7 10
15 7 8 -4 17 -2 20 3 7 11 41 6 38 -6z m33 7 c-9 -14 32 -20 44 -6 11 13 35
14 45 2 3 -4 2 -5 -2 -2 -3 3 -13 -1 -21 -7 -7 -7 -23 -13 -35 -15 -11 -2 -26
-8 -32 -13 -7 -6 -16 -5 -23 2 -9 9 -8 16 5 30 17 19 28 24 19 9z m-43 -59
c-6 -9 -17 -16 -24 -14 -10 2 -10 0 1 -12 10 -13 10 -16 -3 -16 -9 0 -18 4
-21 9 -8 12 29 43 39 34 5 -5 4 -1 -3 8 -14 18 -4 35 12 19 7 -7 7 -16 -1 -28z"/>
<path d="M5823 21563 c0 -9 4 -10 14 -2 7 6 13 12 13 14 0 1 -6 2 -13 2 -8 0
-14 -6 -14 -14z"/>
<path d="M6043 21265 c0 -8 4 -12 9 -9 5 3 6 10 3 15 -9 13 -12 11 -12 -6z"/>
<path d="M12513 22175 c0 -8 4 -12 9 -9 4 3 8 9 8 15 0 5 -4 9 -8 9 -5 0 -9
-7 -9 -15z"/>
<path d="M28839 22176 c-2 -2 -31 -5 -64 -7 -33 -2 -64 -5 -69 -7 -5 -3 -40
-6 -78 -8 -38 -2 -74 -7 -81 -11 -7 -4 -23 -9 -37 -11 -14 -1 -32 -5 -40 -9
-8 -3 -19 -7 -25 -8 -51 -9 -75 -19 -71 -30 2 -7 -1 -18 -7 -25 -9 -10 -9 -11
1 -6 6 4 12 2 12 -3 0 -6 -8 -11 -17 -12 -10 0 -30 -3 -45 -5 -19 -3 -28 0
-32 13 -3 11 -4 8 -3 -7 2 -23 -1 -24 -50 -24 -29 0 -50 -3 -48 -7 3 -4 -4 -9
-15 -12 -11 -3 -18 -1 -15 3 3 5 1 12 -5 15 -6 4 -10 3 -9 -2 1 -4 0 -11 -1
-15 -1 -5 -3 -14 -4 -20 0 -7 -7 -14 -13 -14 -7 -1 -16 -3 -20 -4 -5 -1 -12
-2 -17 -1 -12 3 -59 -21 -68 -34 -5 -6 -8 -4 -8 4 0 11 -4 10 -19 -3 -15 -13
-20 -14 -24 -4 -3 7 -6 2 -6 -12 -1 -19 -3 -22 -10 -11 -8 12 -12 12 -25 2 -9
-8 -16 -10 -16 -5 0 4 -17 -8 -37 -27 -20 -18 -31 -26 -24 -16 8 10 9 17 3 17
-6 0 -14 -4 -17 -10 -3 -5 -15 -10 -25 -10 -12 0 -17 -5 -14 -13 4 -12 -4 -15
-56 -20 -14 -1 -30 -9 -37 -17 -7 -8 -13 -11 -13 -6 0 5 -7 3 -15 -4 -11 -9
-12 -16 -5 -25 8 -10 8 -15 -1 -21 -8 -4 -9 -3 -5 5 9 15 -19 25 -41 16 -10
-5 -24 -9 -32 -9 -8 -1 -15 -9 -17 -19 -2 -14 2 -17 14 -12 13 5 14 3 5 -6
-13 -13 -37 -3 -28 12 8 11 -10 12 -33 0 -9 -5 -29 -14 -45 -22 -16 -7 -23
-15 -16 -19 7 -5 5 -9 -6 -13 -9 -4 -18 -1 -21 8 -5 12 -11 12 -35 -6 -16 -11
-29 -28 -30 -37 0 -12 -2 -13 -6 -4 -4 10 -9 8 -19 -6 -8 -11 -22 -19 -31 -18
-10 2 -24 -3 -31 -11 -8 -7 -18 -11 -23 -8 -5 4 -9 1 -9 -4 0 -6 -7 -11 -15
-11 -17 0 -20 -16 -5 -25 6 -3 10 -2 10 3 0 18 26 20 27 2 1 -11 -7 -20 -20
-23 -12 -2 -31 -8 -42 -13 -18 -7 -18 -6 -6 9 9 11 10 17 2 17 -6 0 -11 -5
-11 -11 0 -5 -3 -8 -8 -5 -4 2 -16 -2 -27 -10 -19 -14 -19 -15 8 -10 19 3 27
1 24 -7 -2 -7 -16 -11 -30 -11 -20 1 -24 -2 -18 -10 7 -8 5 -12 -7 -12 -9 -1
-24 -3 -32 -5 -9 -2 -14 2 -12 9 1 8 -2 11 -7 8 -5 -4 -8 -16 -6 -28 3 -11 1
-18 -2 -14 -4 3 -18 -4 -31 -16 -14 -13 -21 -16 -17 -8 7 12 6 13 -7 3 -8 -7
-18 -10 -22 -6 -4 4 -4 0 0 -10 4 -11 1 -17 -8 -17 -18 0 -76 -28 -83 -40 -3
-5 -12 -7 -19 -4 -8 3 -17 1 -21 -5 -3 -6 -17 -11 -30 -11 -13 0 -31 -8 -41
-17 -10 -10 -21 -18 -25 -18 -4 0 -11 -3 -15 -7 -4 -5 -15 -8 -24 -8 -9 0 -27
-11 -39 -24 -13 -14 -29 -22 -37 -19 -8 3 -21 0 -29 -7 -8 -7 -15 -9 -15 -4 0
14 -24 -15 -26 -31 -2 -14 0 -14 13 -3 9 7 19 12 22 11 3 -2 6 2 6 7 0 14 19
8 21 -7 1 -6 -7 -20 -19 -30 -11 -10 -17 -12 -13 -5 4 6 2 12 -3 12 -6 0 -11
-4 -11 -9 0 -5 -11 -8 -25 -5 -14 2 -25 0 -25 -5 0 -6 9 -8 20 -6 12 2 20 -2
20 -10 0 -8 -8 -12 -19 -10 -19 3 -22 -9 -8 -32 4 -6 2 -15 -4 -19 -8 -4 -9
-3 -5 4 4 7 1 12 -9 12 -9 0 -14 -4 -11 -9 3 -5 -1 -14 -9 -21 -8 -7 -15 -9
-15 -6 0 4 -10 -3 -22 -14 -17 -16 -31 -20 -55 -16 -19 3 -33 0 -33 -5 0 -6 5
-7 10 -4 6 3 10 3 10 0 0 -3 -14 -11 -31 -17 -17 -6 -34 -21 -39 -34 -6 -14
-18 -24 -29 -24 -11 0 -23 -4 -26 -10 -3 -5 -15 -10 -26 -10 -10 0 -19 -5 -19
-11 0 -5 4 -8 9 -4 5 3 13 0 17 -6 4 -7 3 -9 -3 -6 -6 4 -23 -3 -37 -14 -15
-12 -30 -19 -33 -16 -3 3 -12 -1 -20 -9 -8 -8 -18 -12 -22 -9 -5 2 -17 -5 -27
-17 -11 -12 -14 -18 -7 -15 6 4 14 3 17 -2 7 -11 -13 -9 -33 3 -15 10 -33 -12
-23 -29 3 -5 -1 -4 -10 2 -12 11 -18 9 -33 -7 -10 -11 -21 -17 -26 -15 -4 3
-17 -7 -29 -22 -17 -22 -23 -25 -30 -13 -9 13 -10 13 -11 0 -1 -8 -1 -18 0
-22 0 -3 -7 -5 -17 -3 -9 1 -23 -3 -31 -9 -11 -8 -15 -8 -19 2 -2 8 -10 4 -23
-12 -23 -30 -25 -43 -2 -25 15 13 15 12 2 -8 -9 -16 -16 -19 -21 -10 -7 11
-12 2 -9 -16 2 -11 -61 -63 -73 -59 -5 2 -4 -3 2 -11 15 -17 -3 -38 -26 -30
-8 4 -21 -2 -29 -13 -11 -15 -16 -16 -22 -6 -6 10 -10 8 -14 -8 -3 -12 -11
-20 -19 -19 -7 1 -20 0 -28 -3 -8 -4 -24 -9 -35 -14 -11 -4 -23 -6 -27 -6 -5
1 -8 -2 -8 -7 0 -5 -9 -13 -20 -16 -11 -4 -18 -11 -14 -16 4 -6 11 -6 20 2 9
7 14 8 14 1 0 -6 -5 -12 -10 -14 -6 -2 -12 -13 -12 -25 -2 -14 -8 -20 -20 -18
-10 2 -18 -2 -18 -8 0 -18 42 -19 61 -1 10 9 16 24 14 35 -2 10 1 22 7 25 6 4
8 2 4 -4 -3 -6 -2 -13 2 -16 12 -7 8 -61 -4 -59 -5 1 -16 -4 -24 -11 -17 -14
-29 -14 -47 -3 -6 4 -14 3 -18 -3 -3 -5 -1 -10 6 -10 19 0 -4 -21 -27 -25 -11
-2 -20 -4 -21 -5 -2 -2 -7 -4 -13 -5 -5 -1 -13 -4 -17 -5 -5 -1 -11 -2 -15 -1
-5 0 -7 -4 -5 -10 1 -6 -6 -13 -15 -14 -10 -2 -16 1 -15 7 1 6 -5 12 -14 13
-17 3 -18 -6 -4 -38 7 -18 1 -31 -16 -33 -20 -3 -21 -4 -11 -16 10 -12 12 -19
12 -34 0 -4 7 0 16 7 16 13 51 23 39 11 -4 -4 -12 -7 -18 -7 -7 0 -13 -7 -15
-16 -4 -22 40 -19 66 4 10 9 23 17 29 17 12 0 11 -25 -1 -37 -4 -4 -7 -3 -6 2
5 25 -2 27 -24 6 -14 -13 -23 -28 -20 -35 5 -13 -60 -41 -75 -31 -5 3 -13 0
-17 -6 -4 -8 -3 -9 4 -5 18 11 14 0 -5 -15 -9 -8 -14 -9 -10 -3 4 7 0 17 -8
24 -13 10 -15 9 -15 -11 0 -19 -2 -21 -10 -9 -9 14 -15 7 -11 -14 1 -5 -4 -4
-13 3 -10 8 -16 9 -21 1 -3 -6 -11 -8 -16 -4 -5 3 -9 2 -8 -3 3 -20 -2 -25
-15 -14 -10 8 -16 9 -21 1 -3 -6 -11 -7 -17 -4 -7 4 -8 2 -4 -4 4 -7 1 -12 -9
-12 -10 0 -13 -4 -8 -12 13 -22 12 -37 -5 -50 -13 -11 -14 -11 -7 2 14 23 14
37 0 37 -7 0 -12 -8 -11 -18 1 -10 -3 -18 -9 -18 -5 0 -9 8 -8 17 1 10 0 11
-3 4 -3 -6 -9 -10 -14 -7 -4 3 -13 -2 -20 -10 -10 -12 -9 -15 4 -15 26 0 30
-1 43 -11 7 -6 13 -6 17 0 7 10 43 3 52 -10 3 -5 2 -9 -3 -8 -20 3 -25 -2 -14
-15 9 -10 9 -16 1 -21 -7 -4 -14 1 -17 13 -3 12 -12 19 -21 17 -10 -2 -17 -4
-17 -5 0 -1 -8 -3 -18 -5 -11 -2 -22 -7 -25 -11 -4 -4 1 -4 10 -1 9 3 22 -1
29 -9 10 -12 6 -14 -30 -10 -23 2 -44 0 -47 -5 -3 -5 -9 -7 -14 -4 -5 3 -11 1
-15 -5 -4 -6 -10 -8 -15 -5 -5 3 -11 1 -14 -4 -3 -5 3 -11 14 -14 11 -3 18 0
17 6 -3 15 83 17 101 4 7 -6 12 -6 11 -1 -4 21 2 26 17 14 8 -8 14 -9 12 -4
-2 5 2 9 7 9 5 0 9 -4 7 -8 -1 -5 2 -6 8 -2 6 3 8 11 4 17 -3 5 2 8 12 7 11
-2 24 0 31 4 7 5 9 0 6 -14 -5 -18 -2 -20 27 -15 18 2 37 11 41 18 8 11 13 5
11 -13 -1 -3 5 -6 12 -6 17 0 14 31 -2 33 -7 1 -15 3 -19 4 -5 1 -12 2 -16 1
-5 -1 -6 2 -3 7 8 13 59 6 65 -9 9 -20 50 -21 46 0 -2 9 -4 22 -4 29 -1 7 -5
11 -10 7 -6 -3 -8 -15 -6 -27 3 -11 1 -17 -3 -14 -4 4 -7 13 -7 19 0 7 -16 12
-43 11 -26 0 -42 4 -42 12 0 7 16 10 47 8 27 -1 54 2 60 8 7 6 14 8 14 4 1 -3
3 -10 4 -16 1 -5 3 -13 4 -17 0 -3 12 4 25 16 18 17 26 19 31 10 5 -7 4 -10
-2 -6 -6 4 -16 1 -21 -6 -9 -10 -5 -13 18 -11 18 1 30 -3 30 -10 0 -9 -13 -12
-38 -11 -36 2 -39 0 -37 -24 0 -14 4 -25 8 -23 4 1 10 2 13 2 4 0 0 8 -7 17
-13 15 -12 16 8 11 13 -4 26 -2 29 3 3 5 10 7 15 3 6 -3 5 -12 -3 -22 -10 -12
-10 -14 0 -8 6 4 12 2 12 -3 0 -6 -3 -11 -7 -12 -29 -3 -47 -9 -53 -19 -12
-20 -59 -40 -66 -28 -4 7 -9 6 -14 -1 -4 -7 -23 -13 -42 -14 -33 -2 -35 -4
-35 -34 1 -18 3 -30 6 -27 2 2 17 -8 32 -22 28 -27 33 -16 11 21 -6 11 -12 14
-12 7 0 -7 -5 -10 -10 -7 -6 4 -7 11 -4 17 4 7 2 8 -4 4 -7 -4 -12 -2 -12 3 0
6 3 11 8 12 60 7 78 6 84 -4 5 -7 8 -8 8 -1 0 11 79 12 98 1 6 -4 14 -2 18 4
5 8 3 9 -6 4 -8 -5 -11 -4 -6 3 7 12 31 6 55 -12 11 -8 13 -8 8 0 -3 6 0 11 8
11 8 0 13 -5 12 -10 -3 -15 32 -16 48 -1 12 12 16 11 29 -7 15 -22 15 -22 13
-1 0 11 -5 18 -11 15 -5 -3 -6 -2 -3 3 4 8 62 11 62 4 0 -8 112 -3 117 5 5 6
8 5 8 -3 0 -7 5 -10 10 -7 6 3 10 1 10 -5 0 -7 -6 -10 -14 -7 -8 3 -20 -1 -26
-9 -15 -17 -41 -19 -37 -3 1 6 -6 13 -17 14 -14 3 -16 1 -7 -8 15 -15 14 -24
-4 -31 -10 -4 -19 2 -26 17 l-10 22 5 -23 c3 -16 -4 -30 -22 -47 -22 -21 -24
-25 -9 -26 60 -3 85 -1 96 5 7 5 10 2 9 -5 -2 -8 7 -13 22 -14 14 0 25 -6 25
-12 0 -7 3 -13 8 -13 4 0 10 0 13 0 4 0 1 7 -6 15 -10 12 -10 15 4 15 15 0 19
-11 19 -53 0 -13 3 -15 13 -6 7 6 13 14 12 17 -2 20 4 23 18 11 22 -18 41 -20
41 -4 0 7 -8 12 -18 10 -23 -5 -31 6 -18 25 6 10 9 11 9 3 0 -7 6 -13 14 -13
10 0 13 8 11 21 -3 12 -1 18 3 15 4 -4 7 -13 7 -19 0 -8 19 -12 52 -12 28 0
51 -4 50 -9 -3 -12 65 -14 81 -3 17 13 98 12 114 0 7 -6 31 -9 52 -7 39 4 39
4 20 -17 -22 -24 -26 -46 -9 -46 7 0 12 10 11 21 -1 15 5 21 19 21 11 0 20 -4
20 -10 1 -17 24 -52 25 -36 0 11 4 11 18 -2 15 -14 19 -15 19 -2 0 8 -3 12 -7
10 -4 -2 -19 9 -34 24 -27 28 -26 38 4 36 8 0 14 -7 12 -14 -1 -7 2 -10 8 -6
6 3 8 10 6 13 -2 4 6 7 20 7 13 -1 23 -6 22 -11 -2 -5 -6 -8 -10 -7 -3 1 -11
-4 -18 -12 -9 -11 -7 -13 7 -10 10 1 24 -2 32 -8 14 -12 47 -20 37 -10 -3 4 2
15 11 26 10 11 12 17 6 13 -9 -5 -11 -2 -6 9 3 9 9 13 12 8 3 -5 13 -12 23
-16 17 -6 19 7 4 33 -7 12 -7 13 5 2 8 -7 14 -18 14 -25 0 -7 13 -12 32 -11
18 0 30 -3 27 -8 -3 -5 -8 -6 -12 -4 -13 8 -41 -20 -38 -37 3 -25 21 -21 21 5
0 13 7 22 20 24 11 2 21 8 23 14 3 7 11 5 24 -7 11 -10 23 -18 27 -18 3 0 5
-3 4 -6 -1 -3 4 -6 11 -6 7 0 13 6 13 13 0 7 -4 11 -8 8 -4 -2 -10 0 -14 6 -4
6 -11 8 -16 5 -5 -3 -6 1 -2 10 4 12 8 13 13 4 5 -6 15 -9 24 -6 8 3 17 3 20
-1 6 -10 48 -8 66 3 9 5 11 4 6 -3 -7 -12 0 -14 64 -15 19 0 38 -5 42 -11 6
-8 8 -8 8 0 0 6 7 11 15 11 13 0 12 -3 -2 -19 -20 -22 -29 -58 -10 -39 7 7 12
17 12 24 1 7 7 11 14 9 7 -1 10 1 7 6 -2 4 -1 14 5 22 6 11 9 12 9 2 0 -9 9
-12 28 -9 15 2 36 1 47 -3 15 -6 28 0 51 21 21 20 31 25 31 15 0 -8 -3 -13 -7
-11 -4 2 -17 -6 -29 -19 -23 -25 -35 -27 -61 -11 -12 7 -13 6 -3 -6 10 -12 10
-18 1 -27 -7 -7 -13 -19 -14 -27 -2 -13 1 -14 12 -4 7 6 12 15 9 19 -3 5 -1
11 5 15 5 3 10 1 10 -4 0 -6 8 -3 19 8 14 14 31 18 62 16 29 -1 50 4 62 14 15
12 18 13 15 1 -4 -16 23 -21 35 -5 5 6 7 4 4 -5 -2 -8 -9 -15 -14 -15 -6 0
-14 -3 -18 -6 -3 -4 4 -6 17 -5 13 0 23 -5 23 -11 0 -7 3 -13 8 -13 4 0 10 0
14 0 4 0 2 5 -5 12 -7 7 -12 19 -12 27 1 12 6 9 21 -9 18 -21 20 -22 17 -6 -2
16 3 20 32 20 29 1 34 4 32 21 -5 27 7 14 13 -14 2 -14 0 -19 -7 -15 -6 4 -8
3 -5 -3 9 -14 93 -9 112 7 14 11 16 11 13 0 -4 -19 23 -20 46 -1 11 9 16 11
13 4 -4 -6 -2 -15 4 -18 6 -4 15 -17 20 -29 8 -19 9 -19 7 -1 -3 21 2 25 28
25 8 0 12 -5 9 -10 -4 -6 -10 -8 -14 -5 -5 2 -8 -5 -7 -18 0 -12 -5 -22 -11
-22 -7 0 -13 -3 -13 -7 0 -5 0 -11 0 -15 0 -3 11 4 25 17 13 12 22 26 20 30
-2 4 7 17 20 30 22 21 24 21 21 3 -4 -16 2 -19 37 -19 29 1 41 -3 39 -11 -1
-7 3 -13 9 -13 6 0 9 6 6 14 -3 8 12 30 36 52 41 38 41 38 11 4 -17 -19 -30
-41 -28 -47 1 -7 2 -16 3 -19 0 -4 8 0 17 7 20 17 42 20 50 8 4 -6 10 -6 18 0
8 7 21 6 39 -4 14 -7 26 -11 24 -7 -1 4 3 8 8 10 6 1 10 -2 10 -8 0 -14 12
-17 22 -6 5 5 2 6 -6 1 -10 -5 -12 -4 -7 4 4 6 13 8 19 4 6 -4 23 -7 37 -7 19
0 24 5 22 20 -3 18 -3 18 11 -1 10 -13 12 -24 6 -32 -12 -13 16 -12 28 2 4 4
2 5 -6 0 -10 -6 -12 -4 -7 4 6 9 11 9 21 1 10 -8 15 -8 21 1 4 7 3 9 -3 6 -5
-3 -10 0 -10 7 0 7 6 13 13 13 7 0 12 -5 11 -10 -1 -5 11 -11 27 -14 25 -3 27
-2 18 10 -10 11 -9 17 2 26 12 10 14 9 11 -6 -4 -27 14 -46 31 -32 11 9 14 8
15 -5 3 -29 4 -34 12 -40 4 -3 5 -3 2 1 -3 3 1 13 8 21 10 13 9 14 -2 7 -10
-5 -12 -4 -7 4 4 6 13 8 19 4 23 -15 52 -9 82 16 20 18 24 19 12 5 -9 -11 -14
-24 -10 -29 5 -4 3 -5 -3 -2 -6 3 -11 0 -11 -7 0 -7 6 -13 13 -13 7 0 13 3 12
6 -2 18 3 24 10 13 9 -13 52 -25 51 -14 -3 17 3 19 35 12 19 -4 38 -4 43 1 5
5 21 2 36 -6 15 -7 27 -11 27 -8 0 3 8 -1 17 -8 9 -8 14 -9 11 -3 -4 6 3 10
16 10 12 0 23 -6 23 -13 0 -10 -4 -10 -16 -1 -9 7 -3 -2 13 -20 35 -37 31 -36
45 -18 9 10 8 13 -6 12 -10 0 -19 4 -20 9 -2 6 5 10 15 10 9 1 22 4 28 8 6 3
14 3 18 0 24 -24 48 -1 26 25 -6 7 -3 6 5 -1 8 -7 16 -31 18 -54 1 -32 5 -39
15 -31 9 8 9 14 1 24 -9 11 -8 14 4 14 8 0 17 -5 19 -10 2 -6 13 -12 26 -15
13 -2 20 0 17 6 -4 5 -10 7 -15 4 -5 -3 -11 -1 -14 4 -3 5 7 7 23 6 33 -3 42
14 45 79 1 44 18 56 44 33 10 -8 33 -14 54 -13 20 1 34 -2 32 -6 -3 -5 -10 -5
-16 -2 -6 4 -8 2 -5 -3 4 -6 25 -9 47 -7 32 3 40 1 40 -12 0 -13 -3 -14 -14
-5 -11 9 -16 9 -22 0 -4 -7 -3 -9 3 -6 11 7 47 -27 56 -53 4 -12 6 -11 6 3 2
30 1 32 -8 32 -21 0 -24 16 -4 21 22 6 33 39 33 96 0 25 3 28 14 19 10 -9 16
-8 26 4 9 11 16 12 25 5 17 -14 22 -4 19 43 -1 31 1 35 12 26 10 -8 11 -15 4
-24 -8 -9 -8 -15 0 -20 8 -5 8 -11 1 -19 -8 -9 -4 -19 13 -35 22 -21 24 -21
21 -5 -2 11 -4 19 -5 19 -1 0 -4 12 -6 26 -3 16 2 31 11 39 12 10 15 10 15 -4
0 -11 -4 -14 -12 -10 -8 5 -7 0 2 -11 13 -17 13 -18 0 -10 -12 7 -13 6 -4 -6
6 -8 14 -21 18 -29 3 -8 4 0 3 18 -2 18 0 35 5 38 4 3 8 0 8 -5 0 -6 5 -11 11
-11 5 0 7 6 3 13 -4 6 2 3 14 -7 l22 -19 1 46 c1 26 3 52 4 57 1 6 3 13 4 16
0 4 7 1 14 -5 8 -6 16 -9 18 -6 3 2 6 -16 6 -40 1 -33 -3 -45 -15 -48 -15 -4
-15 -5 1 -6 9 0 17 -9 17 -18 0 -13 4 -12 14 7 7 14 9 29 4 34 -12 15 -10 38
4 30 6 -4 8 -3 4 4 -3 6 -2 13 3 16 5 3 7 16 3 28 -4 16 -2 19 9 13 11 -6 12
-5 2 6 -15 15 -18 103 -4 94 10 -6 24 11 27 32 1 7 -2 15 -7 19 -5 3 -9 13 -8
22 0 12 4 9 11 -8 13 -28 17 -61 9 -74 -9 -19 -7 -55 4 -48 20 13 36 10 43 -8
7 -17 8 -17 18 4 9 20 8 23 -5 21 -9 -1 -22 3 -30 9 -12 9 -13 8 -6 -3 5 -10
4 -12 -4 -7 -8 5 -9 12 -3 19 5 7 7 26 5 42 l-4 30 29 -28 c28 -27 30 -27 35
-8 2 11 2 23 -1 26 -9 9 -8 74 1 68 4 -3 7 -14 5 -26 -2 -12 2 -21 8 -20 6 1
11 -4 11 -12 0 -8 -3 -12 -7 -10 -3 2 -6 -7 -6 -20 0 -13 3 -22 7 -19 4 2 10
-2 12 -8 3 -7 5 -2 4 12 -2 52 3 81 13 75 6 -3 10 -1 10 4 0 6 -4 11 -8 11 -4
0 -8 11 -8 24 0 14 4 22 8 20 5 -3 5 -11 2 -17 -4 -7 -4 -9 1 -5 4 4 15 2 24
-4 12 -10 12 -7 -2 8 -9 11 -14 24 -10 28 11 10 12 37 2 30 -5 -3 -7 -9 -5
-13 3 -4 -1 -8 -9 -8 -8 0 -11 5 -7 11 4 6 7 16 7 21 0 6 9 10 20 10 11 0 25
3 31 7 6 4 11 1 11 -7 0 -8 -5 -13 -11 -12 -13 3 -15 -24 -3 -40 5 -7 13 -10
18 -7 14 8 0 25 -14 17 -7 -3 -5 2 4 13 18 22 19 50 1 46 -7 -1 -12 4 -12 11
0 20 48 20 53 -1 3 -9 5 9 6 40 0 31 -3 59 -8 63 -6 3 -8 -3 -6 -15 2 -11 0
-22 -4 -24 -4 -3 -7 7 -6 22 1 15 7 26 13 24 7 -1 12 5 12 13 0 8 6 15 14 15
9 0 12 7 9 20 -7 27 -23 36 -18 10 2 -11 0 -20 -6 -20 -5 0 -9 11 -9 25 0 28
17 32 45 11 12 -9 16 -19 11 -32 -6 -15 -5 -16 5 -7 10 10 10 17 0 36 -7 13
-11 33 -10 43 2 10 -1 20 -6 21 -6 1 -10 -6 -9 -16 1 -10 -4 -18 -11 -18 -7 0
-11 7 -10 16 2 9 4 22 4 29 1 7 6 10 11 7 6 -3 14 4 18 16 l9 23 8 -25 c4 -13
8 -27 9 -31 4 -23 16 -16 16 10 0 19 -5 32 -12 32 -8 0 -9 3 -3 8 12 9 13 95
1 103 -5 4 1 10 13 14 20 6 31 35 13 35 -5 0 -9 25 -10 56 -1 59 5 85 17 66 4
-6 7 17 8 51 2 70 5 97 10 97 3 0 14 -5 26 -11 20 -9 20 -9 -2 9 -18 14 -21
21 -11 27 9 6 11 4 5 -5 -5 -8 -4 -11 3 -7 13 9 10 30 -8 53 -14 18 -14 18 3
5 18 -14 18 -13 14 17 -3 18 -1 30 4 26 5 -3 9 2 9 11 0 10 -5 13 -12 9 -6 -4
-8 -3 -4 4 3 6 2 13 -4 17 -6 4 -8 11 -4 16 8 13 34 -8 34 -27 0 -8 7 -14 16
-14 14 0 15 2 3 17 -10 11 -10 14 -1 9 7 -4 12 -1 12 9 0 9 -4 14 -9 11 -5 -4
-7 2 -5 11 2 10 1 32 -4 48 -6 22 -14 30 -30 29 -12 -1 -22 3 -22 7 0 5 5 9
11 9 5 0 7 6 3 13 -6 10 -4 10 7 0 7 -7 16 -13 21 -13 4 0 5 6 3 13 -3 6 -6
32 -9 57 -6 66 -17 123 -28 136 -5 7 -8 16 -7 20 1 5 -2 19 -6 31 -4 12 -6 25
-5 29 1 4 -4 10 -11 15 -10 6 -10 11 0 23 11 13 11 19 1 31 -7 8 -8 15 -2 15
5 0 15 -7 22 -15 13 -15 30 -12 30 7 0 5 -6 8 -13 5 -10 -4 -12 3 -9 23 2 15
-1 31 -7 34 -6 4 -9 1 -8 -6 2 -7 2 -10 0 -5 -3 4 -9 4 -15 1 -5 -3 -4 3 4 15
10 16 10 23 0 33 -6 6 -12 18 -12 26 0 8 -10 28 -22 45 -12 16 -22 40 -23 53
0 13 -11 34 -24 48 -14 14 -20 30 -16 37 5 7 4 10 -2 6 -6 -4 -19 3 -29 16
-19 21 -19 21 0 7 18 -14 19 -14 8 5 -5 11 -20 30 -31 42 -23 25 -28 38 -8 27
8 -5 8 -3 -2 9 -7 9 -17 15 -21 12 -5 -3 -11 -1 -15 5 -3 5 1 10 9 10 23 0 20
24 -6 46 -12 10 -18 13 -14 7 4 -7 2 -13 -3 -13 -6 0 -11 -5 -11 -11 0 -8 4
-9 13 0 14 11 27 6 27 -10 0 -5 -6 -6 -14 -3 -8 3 -17 0 -21 -6 -5 -8 -11 -8
-21 1 -12 9 -12 15 -2 27 10 13 10 14 1 8 -8 -4 -13 -2 -13 8 0 8 -9 18 -20
21 -11 4 -18 11 -14 16 4 6 11 6 20 -2 11 -9 14 -8 14 6 0 17 1 17 23 -1 20
-17 20 -16 -2 9 -26 28 -33 33 -28 18 1 -5 -2 -9 -8 -9 -5 0 -9 4 -8 8 4 14
-70 71 -84 66 -7 -3 -15 -1 -18 4 -3 5 -19 16 -35 24 -17 9 -43 23 -58 31 -15
8 -43 16 -62 17 -19 2 -37 6 -40 10 -3 3 -19 8 -36 11 -17 3 -41 10 -52 16
-12 6 -33 9 -47 7 -14 -3 -25 0 -25 5 0 11 -139 9 -146 -2 -2 -4 10 -5 26 -4
17 1 33 -1 36 -6 3 -5 11 -6 17 -2 22 14 54 14 54 0 0 -11 -12 -13 -46 -10
-79 7 -90 9 -97 16 -4 4 -14 1 -23 -6 -14 -11 -14 -10 -2 5 7 10 18 15 24 11
6 -3 7 -1 3 5 -10 16 -36 15 -36 0 0 -10 -2 -10 -8 0 -5 7 -10 10 -13 8z m-59
-27 c0 6 5 11 10 11 15 0 12 -17 -4 -23 -8 -3 -20 2 -28 11 -12 15 -11 16 5 3
11 -9 17 -10 17 -2z m60 7 c0 -11 -19 -15 -25 -6 -3 5 1 10 9 10 9 0 16 -2 16
-4z m-206 -27 c-3 -5 -10 -7 -15 -3 -5 3 -7 10 -3 15 3 5 10 7 15 3 5 -3 7
-10 3 -15z m86 5 c0 -8 -19 -13 -24 -6 -3 5 1 9 9 9 8 0 15 -2 15 -3z m-190
-29 c-7 -8 -17 -12 -23 -8 -6 4 -3 9 9 14 27 11 28 11 14 -6z m67 9 c-3 -3
-12 -4 -19 -1 -8 3 -5 6 6 6 11 1 17 -2 13 -5z m657 -25 c-3 -5 -10 -7 -15 -3
-5 3 -7 10 -3 15 3 5 10 7 15 3 5 -3 7 -10 3 -15z m-779 0 c6 -8 -2 -11 -21
-8 -4 0 -10 -5 -15 -13 -7 -11 -10 -11 -21 0 -11 11 -10 13 2 10 8 -2 14 2 13
7 -2 14 35 17 42 4z m811 -15 c1 -9 0 -13 -4 -10 -3 4 -7 14 -8 22 -1 9 0 13
4 10 3 -4 7 -14 8 -22z m59 -6 c5 4 5 2 1 -5 -4 -7 3 -13 21 -15 16 -2 29 -9
29 -15 3 -24 4 -25 18 -14 11 9 16 9 22 -1 4 -7 3 -10 -1 -5 -5 4 -17 -1 -28
-10 -11 -10 -18 -13 -14 -7 4 6 -2 19 -13 29 -11 10 -20 14 -20 10 0 -4 -9 0
-20 10 -11 10 -20 15 -20 11 0 -4 -5 -4 -10 -1 -6 4 -8 11 -4 16 4 6 10 6 18
0 7 -6 17 -7 21 -3z m142 -82 c11 -11 10 -29 -2 -42 -11 -13 -28 -8 -20 6 5 9
-13 25 -29 25 -5 0 -11 5 -13 12 -5 13 51 12 64 -1z m-2051 -315 c-4 -5 0 -12
6 -15 7 -3 4 -4 -7 -3 -12 1 -19 -3 -17 -11 1 -8 -2 -11 -8 -7 -8 5 -6 13 6
26 18 20 29 26 20 10z m-42 -63 c-3 -4 -9 -8 -15 -8 -5 0 -9 4 -9 8 0 5 7 9
15 9 8 0 12 -4 9 -9z m-58 -10 c4 -6 3 -8 -3 -5 -6 4 -17 -1 -24 -10 -12 -15
-11 -16 9 -11 12 4 22 3 22 -2 0 -4 -11 -10 -25 -12 -29 -6 -32 7 -8 34 19 21
20 21 29 6z m2415 -95 c13 -16 12 -17 -3 -4 -17 13 -22 21 -14 21 2 0 10 -8
17 -17z m31 -74 c2 -2 1 -3 -1 -2 -2 2 -10 -2 -18 -8 -10 -9 -13 -8 -13 4 0
13 25 18 32 6z m-2782 -79 c0 -5 -5 -10 -11 -10 -5 0 -7 5 -4 10 3 6 8 10 11
10 2 0 4 -4 4 -10z m-45 -20 c-3 -5 -12 -10 -18 -10 -7 0 -6 4 3 10 19 12 23
12 15 0z m-35 -16 c0 -8 -19 -13 -24 -6 -3 5 1 9 9 9 8 0 15 -2 15 -3z m-80
-27 c0 -7 -4 -6 -10 3 -9 14 -11 13 -14 -9 0 -6 -8 -16 -16 -23 -12 -11 -12
-11 -1 5 7 9 10 17 6 17 -4 0 -2 7 5 15 13 16 30 11 30 -8z m-122 -58 c-1 -17
-4 -25 -8 -19 -5 9 -9 9 -14 1 -9 -14 -26 -14 -26 -1 0 6 5 9 12 8 7 -2 17 7
23 20 13 29 14 28 13 -9z m39 5 c-3 -3 -12 -4 -19 -1 -8 3 -5 6 6 6 11 1 17
-2 13 -5z m43 0 c0 -8 -19 -13 -24 -6 -3 5 1 9 9 9 8 0 15 -2 15 -3z m-143
-87 c0 -8 -6 -14 -14 -14 -9 0 -10 4 -2 14 6 7 12 13 14 13 1 0 2 -6 2 -13z
m3140 -289 c-3 -8 -6 -5 -6 6 -1 11 2 17 5 13 3 -3 4 -12 1 -19z m-3717 -67
c0 -5 -7 -12 -16 -15 -14 -5 -15 -4 -4 9 14 17 20 19 20 6z m33 -62 c-8 -8
-13 -7 -18 2 -5 8 -4 10 3 5 7 -4 12 -2 12 5 0 7 3 9 7 6 4 -4 2 -12 -4 -18z
m-184 -46 c-6 -7 -15 -10 -20 -7 -13 8 -3 21 15 21 12 0 13 -4 5 -14z m28 -15
c-3 -8 -6 -5 -6 6 -1 11 2 17 5 13 3 -3 4 -12 1 -19z m-46 -25 c11 -15 11 -16
-1 -6 -11 10 -19 9 -39 -10 l-26 -22 24 28 c14 15 25 27 27 27 1 0 8 -8 15
-17z m-80 -76 c-13 -13 -26 -3 -16 12 3 6 11 8 17 5 6 -4 6 -10 -1 -17z m-171
-92 c0 -2 -6 -8 -13 -14 -10 -8 -14 -7 -14 2 0 8 6 14 14 14 7 0 13 -1 13 -2z
m7 -60 c0 -8 -4 -12 -9 -9 -5 3 -6 10 -3 15 9 13 12 11 12 -6z m-30 -21 c-3
-3 -12 -4 -19 -1 -8 3 -5 6 6 6 11 1 17 -2 13 -5z m4085 -25 c2 -2 1 -3 -1 -2
-2 2 -9 -2 -16 -7 -8 -7 -12 -5 -12 4 0 12 22 16 29 5z m-4289 -140 c-12 -12
-64 -19 -58 -8 4 5 10 7 15 4 5 -3 11 -2 14 3 3 5 12 9 21 9 9 0 12 -4 8 -8z
m82 -58 c-9 -8 -36 -10 -30 -2 2 4 11 8 20 8 8 0 13 -3 10 -6z m4097 -92 c2
-2 1 -3 -1 -2 -2 2 -10 -2 -18 -8 -10 -9 -13 -8 -13 4 0 13 25 18 32 6z m48 7
c0 -2 -7 -7 -16 -10 -8 -3 -12 -2 -9 4 6 10 25 14 25 6z m-66 -57 c-3 -5 -10
-7 -15 -3 -5 3 -7 10 -3 15 3 5 10 7 15 3 5 -3 7 -10 3 -15z m-4421 -21 c-11
-18 -13 -38 -3 -35 4 1 8 -1 9 -5 2 -14 -14 -10 -23 5 -7 10 -5 21 3 31 16 19
25 21 14 4z m95 -25 c-7 -9 -4 -11 12 -8 13 2 20 1 16 -2 -4 -4 -16 -8 -28
-10 -12 -2 -27 -8 -34 -14 -7 -6 -14 -6 -18 -1 -8 13 18 34 29 24 5 -4 5 -2 2
5 -14 23 -42 7 -42 -23 -1 -24 -5 -29 -25 -28 -54 3 -53 3 -40 19 11 14 15 14
33 -2 11 -10 17 -13 14 -6 -4 6 -3 15 3 18 8 5 8 11 1 19 -15 18 -8 22 43 22
34 0 42 -3 34 -13z m249 -54 c-2 -7 3 -9 29 -9 8 0 13 4 10 8 -3 5 1 9 9 9 8
0 13 -3 12 -6 -1 -3 3 -7 8 -7 6 -1 9 2 7 8 -1 5 3 6 10 1 7 -4 21 -6 32 -4
11 1 16 -2 11 -8 -3 -6 -10 -9 -15 -6 -4 3 -13 -2 -20 -10 -9 -11 -16 -12 -26
-5 -10 9 -11 6 -7 -12 4 -13 2 -20 -3 -15 -5 5 -9 13 -9 18 0 5 -4 9 -10 8 -5
0 -9 -7 -7 -15 2 -8 -2 -14 -8 -14 -5 0 -10 8 -11 18 0 13 -2 12 -9 -5 -11
-26 -16 -28 -26 -11 -4 6 -3 8 3 5 12 -8 11 39 -1 50 -5 4 -6 3 -2 -4 3 -6 2
-14 -3 -17 -5 -4 -8 -18 -5 -32 3 -17 1 -25 -7 -22 -7 2 -13 20 -14 40 0 20 2
35 6 32 4 -2 10 -1 13 4 6 11 36 12 33 1z m-273 -52 c4 -34 1 -36 -32 -28 -2
1 0 7 5 14 11 18 13 38 2 31 -5 -3 -7 -9 -5 -13 9 -14 -43 -6 -56 8 -9 9 -9
12 -1 7 6 -3 15 -2 18 4 5 8 11 8 20 0 9 -7 16 -6 25 5 16 20 20 16 24 -28z
m-124 -14 c0 -13 -3 -13 -15 -3 -8 7 -12 16 -9 21 8 13 24 1 24 -18z m460
-129 c0 -8 -19 -13 -24 -6 -3 5 1 9 9 9 8 0 15 -2 15 -3z m3578 -88 c0 -12 1
-25 3 -31 2 -5 1 -10 -2 -10 -4 0 -16 -8 -27 -18 -20 -18 -20 -18 -20 17 0 23
5 36 13 36 8 0 17 5 21 12 5 7 3 8 -6 3 -8 -5 -11 -4 -6 3 3 6 2 13 -4 17 -5
3 -10 -2 -10 -11 0 -10 -3 -15 -6 -11 -4 3 -4 13 0 22 8 22 43 -1 44 -29z
m-3081 -1 c0 -8 -4 -12 -9 -9 -5 3 -6 10 -3 15 9 13 12 11 12 -6z m160 -8 c1
-11 1 -18 0 -16 -2 2 -8 11 -15 20 -9 12 -9 16 1 16 7 0 14 -9 14 -20z m-403
5 c3 -5 -1 -9 -9 -9 -8 0 -12 4 -9 9 3 4 7 8 9 8 2 0 6 -4 9 -8z m603 -10 c0
-10 -6 -19 -13 -19 -9 0 -9 5 -1 19 7 10 13 18 14 18 1 0 1 -8 0 -18z m41 -7
c-3 -3 -9 2 -12 12 -6 14 -5 15 5 6 7 -7 10 -15 7 -18z m-602 0 c-3 -23 -26
-43 -26 -24 0 8 5 20 12 27 15 15 17 15 14 -3z m244 10 c0 -2 -6 -8 -13 -14
-10 -8 -14 -7 -14 2 0 8 6 14 14 14 7 0 13 -1 13 -2z m151 -12 c13 -16 12 -17
-3 -4 -17 13 -22 21 -14 21 2 0 10 -8 17 -17z m86 0 c0 -6 -4 -10 -9 -7 -4 3
-8 -2 -8 -10 0 -8 -4 -18 -10 -21 -6 -3 -7 1 -4 10 4 8 1 21 -4 28 -9 10 -6
13 12 13 12 0 23 -6 23 -13z m320 4 c0 -8 -6 -14 -14 -14 -9 0 -10 4 -2 14 6
7 12 13 14 13 1 0 2 -6 2 -13z m-66 -24 c13 -16 12 -17 -3 -4 -17 13 -22 21
-14 21 2 0 10 -8 17 -17z m178 3 c11 -14 6 -15 -27 -7 -4 1 8 21 12 21 2 0 9
-6 15 -14z m-75 -4 c3 -5 -1 -9 -9 -9 -8 0 -12 4 -9 9 3 4 7 8 9 8 2 0 6 -4 9
-8z m110 -8 c3 -8 2 -12 -4 -9 -6 3 -10 10 -10 16 0 14 7 11 14 -7z m122 1
c-1 -8 -5 -17 -8 -21 -5 -4 -4 16 1 34 3 9 9 -1 7 -13z m94 5 c3 -1 8 -2 11
-2 3 1 6 -5 6 -12 0 -7 -6 -13 -13 -13 -7 0 -12 5 -11 11 1 5 -3 10 -10 11 -6
0 -14 3 -18 7 -6 5 19 4 35 -2z m-554 -23 c-4 -28 -17 -38 -32 -26 -13 10 -12
14 2 30 18 19 34 18 30 -4z m411 6 c0 -9 -4 -10 -14 -2 -7 6 -13 12 -13 14 0
1 6 2 13 2 8 0 14 -6 14 -14z m340 4 c0 -8 -6 -14 -14 -14 -9 0 -10 4 -2 14 6
7 12 13 14 13 1 0 2 -6 2 -13z m63 9 c0 -2 -8 -10 -17 -17 -16 -13 -17 -12 -4
4 13 16 21 21 21 13z m-306 -14 c3 -5 -1 -9 -9 -9 -8 0 -12 4 -9 9 3 4 7 8 9
8 2 0 6 -4 9 -8z m508 -17 c2 3 5 -2 5 -10 0 -10 -4 -12 -10 -6 -5 5 -17 7
-26 4 -14 -4 -14 -3 -1 6 14 10 7 16 -13 12 -5 -1 -5 3 -2 9 5 8 13 6 24 -4
10 -9 20 -14 23 -11z m-165 0 c0 -6 -6 -12 -12 -12 -6 0 -12 6 -12 12 0 6 6
12 12 12 6 0 12 -6 12 -12z m60 -8 c1 -11 1 -18 0 -16 -2 2 -8 11 -15 20 -9
12 -9 16 1 16 7 0 14 -9 14 -20z m180 10 c0 -8 -6 -14 -14 -14 -9 0 -10 4 -2
14 6 7 12 13 14 13 1 0 2 -6 2 -13z m172 0 c8 -10 7 -14 -2 -14 -8 0 -14 6
-14 14 0 7 1 13 2 13 2 0 8 -6 14 -13z m-309 -11 c0 -2 -8 -10 -17 -17 -16
-13 -17 -12 -4 4 13 16 21 21 21 13z m169 -9 c8 -10 7 -14 -2 -14 -8 0 -14 6
-14 14 0 7 1 13 2 13 2 0 8 -6 14 -13z m68 -4 c0 -9 -4 -10 -14 -2 -7 6 -13
12 -13 14 0 1 6 2 13 2 8 0 14 -6 14 -14z m173 1 c0 -8 -19 -13 -24 -6 -3 5 1
9 9 9 8 0 15 -2 15 -3z m38 -15 c9 -12 9 -16 -1 -16 -7 0 -14 9 -14 20 -1 11
-1 18 0 16 2 -2 8 -11 15 -20z m-168 6 c0 -2 -6 -8 -13 -14 -10 -8 -14 -7 -14
2 0 8 6 14 14 14 7 0 13 -1 13 -2z m237 -19 c1 -12 -1 -15 -4 -8 -3 6 -8 10
-12 8 -4 -3 -8 1 -8 8 0 22 23 14 24 -8z m97 -7 c-3 -5 -10 -7 -15 -3 -5 3 -7
10 -3 15 3 5 10 7 15 3 5 -3 7 -10 3 -15z m76 15 c0 -8 -19 -13 -24 -6 -3 5 1
9 9 9 8 0 15 -2 15 -3z m-310 -10 c0 -8 -19 -13 -24 -6 -3 5 1 9 9 9 8 0 15
-2 15 -3z m180 2 c0 -2 -8 -10 -17 -17 -16 -13 -17 -12 -4 4 13 16 21 21 21
13z m240 -1 c0 -2 -6 -8 -13 -14 -10 -8 -14 -7 -14 2 0 8 6 14 14 14 7 0 13
-1 13 -2z m154 -13 c3 -5 -1 -9 -9 -9 -8 0 -12 4 -9 9 3 4 7 8 9 8 2 0 6 -4 9
-8z m69 -7 c-3 -9 -8 -14 -10 -11 -3 3 -2 9 2 15 9 16 15 13 8 -4z m-199 -16
c-3 -5 -10 -7 -15 -3 -5 3 -7 10 -3 15 3 5 10 7 15 3 5 -3 7 -10 3 -15z m234
5 c-1 -5 -9 -9 -16 -10 -10 -2 -11 1 -1 12 12 14 24 13 17 -2z m82 11 c0 -1
-11 -12 -24 -24 -19 -17 -26 -20 -32 -9 -4 7 -4 10 1 6 9 -9 37 11 30 21 -2 4
2 8 10 8 8 0 15 -1 15 -2z m-204 -32 c-3 -19 -19 -21 -21 -2 -2 9 3 16 10 16
7 0 12 -6 11 -14z m64 11 c0 -8 -19 -13 -24 -6 -3 5 1 9 9 9 8 0 15 -2 15 -3z
m169 -11 c-6 -7 -15 -10 -20 -7 -13 8 -3 21 15 21 12 0 13 -4 5 -14z m36 -12
c3 -5 2 -12 -3 -15 -5 -3 -9 1 -9 9 0 17 3 19 12 6z m109 -29 c3 -5 -1 -9 -9
-9 -8 0 -12 4 -9 9 3 4 7 8 9 8 2 0 6 -4 9 -8z"/>
<path d="M29466 21982 c-3 -5 1 -9 9 -9 8 0 12 4 9 9 -3 4 -7 8 -9 8 -2 0 -6
-4 -9 -8z"/>
<path d="M29129 19628 c0 -2 -2 -11 -4 -21 -3 -15 -1 -16 11 -6 7 6 11 15 8
20 -5 9 -13 12 -15 7z"/>
<path d="M12615 22160 c3 -5 8 -10 11 -10 2 0 4 5 4 10 0 6 -5 10 -11 10 -5 0
-7 -4 -4 -10z"/>
<path d="M6646 22148 c3 -5 10 -6 15 -3 13 9 11 12 -6 12 -8 0 -12 -4 -9 -9z"/>
<path d="M12672 22124 c10 -10 20 -16 22 -13 3 3 -5 11 -17 18 -21 13 -21 12
-5 -5z"/>
<path d="M12723 22123 c0 -9 4 -10 14 -2 7 6 13 12 13 14 0 1 -6 2 -13 2 -8 0
-14 -6 -14 -14z"/>
<path d="M12855 22091 c-3 -5 -2 -12 3 -15 5 -3 9 1 9 9 0 17 -3 19 -12 6z"/>
<path d="M28326 22081 c-3 -5 -14 -8 -24 -6 -9 1 -11 0 -4 -2 7 -3 10 -8 7
-13 -3 -5 0 -12 6 -15 6 -4 13 2 16 13 3 14 11 19 24 17 11 -2 17 0 14 6 -8
12 -32 12 -39 0z"/>
<path d="M28241 22062 c-1 -8 -6 -10 -13 -6 -7 4 -4 -2 6 -14 11 -12 21 -22
24 -22 3 0 2 3 -1 7 -4 3 -1 13 6 21 8 11 8 14 0 9 -6 -4 -14 -1 -16 5 -4 10
-6 10 -6 0z"/>
<path d="M6215 21990 c-3 -5 1 -10 10 -10 9 0 13 5 10 10 -3 6 -8 10 -10 10
-2 0 -7 -4 -10 -10z"/>
<path d="M6281 21976 c-7 -8 -19 -12 -29 -10 -9 2 -26 -3 -36 -11 -16 -12 -17
-18 -8 -27 7 -7 12 -8 12 -4 0 5 8 2 17 -5 9 -8 14 -9 11 -4 -10 16 6 35 33
40 13 3 25 9 27 15 2 6 9 7 14 4 7 -4 8 -2 4 4 -10 16 -31 15 -45 -2z m-41
-29 c0 -8 -7 -14 -15 -14 -11 0 -12 4 -4 14 6 7 13 13 15 13 2 0 4 -6 4 -13z"/>
<path d="M13200 21922 c0 -4 11 -8 24 -8 14 0 22 4 20 8 -3 4 -14 8 -25 8 -10
0 -19 -4 -19 -8z"/>
<path d="M13305 21901 c-10 -17 12 -21 25 -6 10 12 10 15 -3 15 -9 0 -18 -4
-22 -9z"/>
<path d="M13406 21882 c-3 -5 1 -9 9 -9 8 0 15 4 15 9 0 4 -4 8 -9 8 -6 0 -12
-4 -15 -8z"/>
<path d="M13468 21803 c6 -2 18 -2 25 0 6 3 1 5 -13 5 -14 0 -19 -2 -12 -5z"/>
<path d="M13526 21788 c3 -5 10 -6 15 -3 13 9 11 12 -6 12 -8 0 -12 -4 -9 -9z"/>
<path d="M5733 21575 c0 -8 4 -12 9 -9 5 3 6 10 3 15 -9 13 -12 11 -12 -6z"/>
<path d="M5693 21528 c-18 -5 -33 -11 -33 -14 0 -4 12 -3 28 1 15 4 32 8 39 9
17 3 26 13 11 13 -7 0 -28 -4 -45 -9z"/>
<path d="M27111 21503 c7 -12 15 -20 18 -17 3 2 -3 12 -13 22 -17 16 -18 16
-5 -5z"/>
<path d="M5851 21466 c-8 -10 -9 -16 -1 -21 5 -3 10 -5 11 -3 4 18 7 38 4 38
-1 0 -8 -6 -14 -14z"/>
<path d="M5655 21454 c-15 -11 -16 -16 -6 -27 10 -10 12 -9 9 3 -2 8 2 14 9
15 16 0 26 12 16 18 -4 3 -17 -1 -28 -9z"/>
<path d="M29786 21362 c-3 -6 -2 -13 4 -17 6 -4 8 -10 6 -14 -3 -4 1 -8 9 -8
19 0 19 8 2 32 -9 11 -16 14 -21 7z"/>
<path d="M5720 21335 c0 -2 7 -8 15 -15 12 -10 15 -10 15 2 0 8 -7 15 -15 15
-8 0 -15 -1 -15 -2z"/>
<path d="M5523 21265 c0 -6 15 -10 34 -10 18 0 33 5 33 10 0 6 -15 10 -33 10
-19 0 -34 -5 -34 -10z"/>
<path d="M29845 21260 c-4 -6 -11 -7 -17 -4 -7 4 -8 2 -4 -5 6 -9 11 -9 22 0
14 11 18 19 10 19 -3 0 -8 -5 -11 -10z"/>
<path d="M5876 21252 c-2 -4 0 -16 4 -26 6 -19 7 -18 13 3 3 14 10 20 17 16 8
-5 8 -10 0 -20 -9 -10 -7 -13 5 -11 8 1 19 6 23 12 4 5 5 8 3 7 -2 -2 -11 3
-19 9 -16 14 -40 19 -46 10z"/>
<path d="M5646 21241 c-4 -5 -2 -12 3 -16 5 -3 8 -14 6 -25 -2 -12 0 -18 4
-16 9 6 8 52 -1 61 -3 4 -9 2 -12 -4z"/>
<path d="M5611 21206 c-10 -11 -9 -14 1 -12 14 2 23 15 15 22 -2 2 -10 -2 -16
-10z"/>
<path d="M5791 21207 c-8 -10 -7 -14 2 -14 8 0 14 6 14 14 0 7 -1 13 -2 13 -2
0 -8 -6 -14 -13z"/>
<path d="M5554 21188 l-19 -23 25 20 c14 11 27 21 29 22 2 2 0 3 -6 3 -5 0
-18 -10 -29 -22z"/>
<path d="M5883 21185 c0 -6 6 -12 12 -12 6 0 12 6 12 12 0 6 -6 12 -12 12 -6
0 -12 -6 -12 -12z"/>
<path d="M5756 21171 c-4 -5 -2 -12 3 -15 5 -4 12 -2 15 3 4 5 2 12 -3 15 -5
4 -12 2 -15 -3z"/>
<path d="M5692 21141 c7 -9 13 -18 15 -20 1 -2 1 5 0 16 0 11 -7 20 -14 20
-10 0 -10 -4 -1 -16z"/>
<path d="M5869 21143 c-13 -16 -12 -17 4 -4 9 7 17 15 17 17 0 8 -8 3 -21 -13z"/>
<path d="M26516 21119 c10 -11 12 -19 5 -24 -6 -3 -11 0 -11 7 0 7 -7 2 -16
-10 -18 -25 -12 -41 8 -24 7 6 16 11 21 11 4 1 7 4 8 9 0 4 6 13 12 20 8 10 7
12 -4 10 -8 -2 -13 2 -12 8 1 6 -5 11 -13 11 -12 0 -12 -3 2 -18z"/>
<path d="M26475 21111 c-3 -5 -2 -12 3 -15 5 -3 9 1 9 9 0 17 -3 19 -12 6z"/>
<path d="M5866 21082 c-3 -5 1 -9 9 -9 8 0 12 4 9 9 -3 4 -7 8 -9 8 -2 0 -6
-4 -9 -8z"/>
<path d="M5945 21081 c-3 -5 -2 -12 3 -15 5 -3 9 1 9 9 0 17 -3 19 -12 6z"/>
<path d="M6209 21084 c-1 -5 -2 -15 -3 -23 -1 -16 -53 -34 -74 -26 -7 3 -11 1
-8 -4 9 -15 -22 -34 -41 -26 -28 13 -44 14 -37 4 3 -5 9 -7 14 -4 8 5 33 -19
26 -26 -3 -3 22 -4 54 -4 32 1 57 -2 54 -6 -12 -20 16 -15 36 6 13 13 26 22
31 20 10 -7 3 -40 -8 -38 -5 1 -10 -4 -10 -11 0 -7 6 -13 13 -13 7 0 11 4 8 8
-2 4 -1 10 3 12 5 3 10 35 11 70 3 58 1 65 -15 62 -10 -1 -17 -9 -15 -16 2 -8
-4 -6 -17 5 -12 11 -22 15 -22 10z"/>
<path d="M26440 21073 c0 -23 15 -39 23 -26 3 5 -1 17 -9 28 -14 18 -14 18
-14 -2z"/>
<path d="M5751 21067 c-8 -11 -5 -19 12 -36 l24 -21 18 20 c23 25 27 47 10 47
-7 0 -12 -10 -11 -21 1 -15 -5 -21 -19 -21 -14 0 -20 6 -19 23 2 26 0 27 -15
9z"/>
<path d="M5843 21050 c1 -22 -2 -34 -10 -33 -6 1 -16 -4 -23 -12 -19 -23 16
-12 45 15 14 13 26 20 26 17 1 -4 2 -11 3 -17 1 -9 13 -14 18 -7 5 6 -19 36
-32 39 -8 2 -18 10 -22 18 -4 8 -6 -1 -5 -20z"/>
<path d="M5974 21069 c-2 -4 0 -10 5 -13 5 -4 12 -2 16 4 4 6 11 8 16 4 6 -4
7 -10 0 -17 -5 -7 -11 -16 -13 -22 -1 -5 -7 -8 -13 -7 -5 2 -7 0 -2 -4 4 -4
17 -9 28 -11 14 -2 19 2 17 14 -2 12 2 17 12 15 10 -3 8 4 -8 21 -22 23 -48
31 -58 16z"/>
<path d="M5912 21041 c7 -9 13 -18 15 -20 1 -2 1 5 0 16 0 11 -7 20 -14 20
-10 0 -10 -4 -1 -16z"/>
<path d="M6085 21041 c2 -9 4 -19 4 -23 1 -5 6 -8 12 -8 8 0 8 4 0 13 -7 9 -7
17 0 24 6 6 5 10 -5 10 -7 0 -12 -7 -11 -16z"/>
<path d="M5703 21020 c-15 -19 -18 -27 -8 -27 8 0 13 5 12 11 -1 5 4 10 11 11
12 0 16 9 10 24 -2 4 -13 -4 -25 -19z"/>
<path d="M5943 21025 c0 -6 6 -12 12 -12 6 0 12 6 12 12 0 6 -6 12 -12 12 -6
0 -12 -6 -12 -12z"/>
<path d="M26359 21013 c-13 -16 -12 -17 4 -4 16 13 21 21 13 21 -2 0 -10 -8
-17 -17z"/>
<path d="M5606 20982 c-3 -5 1 -9 9 -9 8 0 12 4 9 9 -3 4 -7 8 -9 8 -2 0 -6
-4 -9 -8z"/>
<path d="M6030 20965 c-7 -8 -15 -13 -19 -11 -3 2 -7 -10 -8 -27 -1 -25 1 -27
9 -13 9 17 11 17 31 -1 20 -16 19 -15 -1 9 -14 15 -19 28 -14 32 6 3 12 0 15
-6 3 -7 4 -3 4 10 -1 26 -1 26 -17 7z"/>
<path d="M26223 20965 c0 -8 4 -12 9 -9 5 3 6 10 3 15 -9 13 -12 11 -12 -6z"/>
<path d="M6127 20962 c-2 -4 2 -18 10 -32 l14 -25 -3 25 c-2 18 1 24 12 22 8
-2 11 0 7 4 -10 10 -36 14 -40 6z"/>
<path d="M6063 20945 c0 -6 6 -12 12 -12 6 0 12 6 12 12 0 6 -6 12 -12 12 -6
0 -12 -6 -12 -12z"/>
<path d="M6104 20930 c1 -14 6 -24 9 -22 11 4 11 6 -1 27 -11 19 -12 18 -8 -5z"/>
<path d="M6163 20925 c0 -6 6 -12 12 -12 6 0 12 6 12 12 0 6 -6 12 -12 12 -6
0 -12 -6 -12 -12z"/>
<path d="M5925 20919 c-3 -3 5 -6 18 -5 12 0 21 -4 20 -10 -1 -6 5 -11 12 -11
10 0 12 4 5 12 -5 7 -8 14 -5 16 2 3 -7 5 -21 5 -14 0 -27 -3 -29 -7z"/>
<path d="M6081 20904 c0 -11 3 -14 6 -6 3 7 2 16 -1 19 -3 4 -6 -2 -5 -13z"/>
<path d="M6240 20910 c0 -5 5 -10 11 -10 5 0 7 5 4 10 -3 6 -8 10 -11 10 -2 0
-4 -4 -4 -10z"/>
<path d="M26220 20899 c0 -5 5 -7 10 -4 6 3 10 8 10 11 0 2 -4 4 -10 4 -5 0
-10 -5 -10 -11z"/>
<path d="M9584 20753 c3 -4 -1 -14 -10 -24 -9 -10 -11 -19 -5 -23 5 -4 12 -2
16 4 4 6 11 8 16 5 5 -4 9 1 9 10 0 9 5 13 10 10 6 -4 8 -10 5 -15 -3 -4 2 -7
10 -6 15 2 22 21 8 21 -5 0 -15 5 -23 10 -17 11 -45 17 -36 8z m26 -6 c0 -2
-10 -12 -22 -23 l-23 -19 19 23 c18 21 26 27 26 19z"/>
<path d="M9803 20737 c2 -15 6 -27 10 -27 9 0 9 5 -3 32 -9 22 -9 21 -7 -5z"/>
<path d="M9766 20742 c-3 -5 1 -9 9 -9 8 0 12 4 9 9 -3 4 -7 8 -9 8 -2 0 -6
-4 -9 -8z"/>
<path d="M9967 20723 c-3 -4 1 -17 9 -28 14 -19 15 -19 11 2 -4 26 -13 38 -20
26z"/>
<path d="M9671 20707 c-16 -20 25 -63 45 -46 19 15 18 17 -8 15 -18 -1 -23 4
-22 22 2 26 0 27 -15 9z"/>
<path d="M9720 20715 c0 -2 6 -8 13 -14 10 -8 14 -7 14 2 0 8 -6 14 -14 14 -7
0 -13 -1 -13 -2z"/>
<path d="M9903 20705 c0 -7 10 -12 21 -11 12 1 20 -4 19 -10 -1 -6 4 -11 12
-11 10 0 11 4 2 19 -7 10 -14 18 -17 19 -3 0 -12 2 -21 4 -9 1 -16 -3 -16 -10z"/>
<path d="M10084 20689 c-1 -17 -1 -29 0 -27 1 2 7 10 14 19 10 13 10 19 -1 27
-9 8 -13 4 -13 -19z"/>
<path d="M10144 20703 c4 -26 22 -34 22 -10 0 13 -5 24 -12 24 -6 0 -11 -6
-10 -14z"/>
<path d="M29796 20711 c-4 -5 -2 -12 3 -15 5 -4 12 -2 15 3 4 5 2 12 -3 15 -5
4 -12 2 -15 -3z"/>
<path d="M10249 20709 c0 -2 -2 -11 -4 -20 -1 -9 3 -16 10 -16 7 0 12 6 11 13
-2 13 -15 31 -17 23z"/>
<path d="M9363 20685 c0 -6 6 -12 12 -12 6 0 12 6 12 12 0 6 -6 12 -12 12 -6
0 -12 -6 -12 -12z"/>
<path d="M9413 20693 c-7 -3 -13 -9 -13 -15 0 -7 5 -7 13 1 8 6 16 8 19 5 3
-3 8 -1 12 4 5 9 -10 12 -31 5z"/>
<path d="M9460 20696 c0 -2 7 -9 15 -16 13 -11 14 -10 9 4 -5 14 -24 23 -24
12z"/>
<path d="M9603 20685 c0 -6 6 -12 12 -12 6 0 12 6 12 12 0 6 -6 12 -12 12 -6
0 -12 -6 -12 -12z"/>
<path d="M9771 20686 c-9 -11 -7 -13 11 -12 13 0 22 -4 21 -10 -1 -6 5 -11 13
-11 10 0 9 7 -8 24 -25 27 -23 26 -37 9z"/>
<path d="M10003 20685 c0 -6 6 -12 12 -12 6 0 12 6 12 12 0 6 -6 12 -12 12 -6
0 -12 -6 -12 -12z"/>
<path d="M10183 20686 c0 -14 33 -14 46 0 3 4 -1 5 -10 1 -9 -3 -21 -1 -26 4
-6 6 -10 4 -10 -5z"/>
<path d="M10409 20683 c-7 -10 -9 -15 -5 -11 5 4 16 2 24 -4 20 -17 39 -18 39
-2 0 8 -3 12 -5 9 -3 -3 -13 2 -22 10 -15 14 -18 14 -31 -2z m32 -10 c13 -16
12 -17 -3 -4 -10 7 -18 15 -18 17 0 8 8 3 21 -13z"/>
<path d="M10346 20682 c-3 -5 1 -9 9 -9 8 0 12 4 9 9 -3 4 -7 8 -9 8 -2 0 -6
-4 -9 -8z"/>
<path d="M10679 20676 c6 -7 7 -17 3 -21 -4 -5 -2 -5 5 -2 6 4 22 -6 36 -22
l25 -30 -2 28 c0 21 -5 28 -21 27 -11 -1 -20 5 -20 13 0 8 -8 15 -18 17 -14 2
-15 -1 -8 -10z"/>
<path d="M10763 20674 c9 -11 15 -24 12 -27 -3 -4 -2 -5 2 -2 3 3 12 0 19 -6
8 -7 14 -7 19 1 3 6 11 8 16 4 6 -4 6 -11 -1 -19 -8 -10 -7 -13 4 -11 9 1 18
5 21 8 9 9 -26 33 -49 33 -13 1 -20 6 -18 15 2 8 0 12 -4 8 -4 -4 -14 -2 -23
4 -12 10 -12 7 2 -8z"/>
<path d="M9640 20670 c0 -5 5 -10 11 -10 5 0 7 5 4 10 -3 6 -8 10 -11 10 -2 0
-4 -4 -4 -10z"/>
<path d="M9883 20666 c0 -8 3 -15 6 -14 3 0 8 -1 11 -2 25 -9 38 -6 32 8 -4
11 -7 12 -10 3 -3 -9 -8 -8 -21 3 -15 14 -18 14 -18 2z"/>
<path d="M10043 20665 c0 -6 6 -12 12 -12 6 0 12 6 12 12 0 6 -6 12 -12 12 -6
0 -12 -6 -12 -12z"/>
<path d="M10116 20671 c-4 -5 -2 -12 4 -16 5 -3 10 -3 10 1 0 4 8 0 18 -9 16
-15 19 -15 19 -2 0 8 -3 13 -5 10 -3 -3 -13 2 -23 11 -10 9 -19 11 -23 5z"/>
<path d="M10283 20665 c0 -6 6 -12 12 -12 6 0 12 6 12 12 0 6 -6 12 -12 12 -6
0 -12 -6 -12 -12z"/>
<path d="M10323 20657 c2 -15 6 -27 10 -27 9 0 9 5 -3 32 -9 22 -9 21 -7 -5z"/>
<path d="M10523 20665 c0 -6 6 -12 12 -12 6 0 12 6 12 12 0 6 -6 12 -12 12 -6
0 -12 -6 -12 -12z"/>
<path d="M25790 20655 c-19 -11 -21 -14 -7 -15 9 0 17 -7 17 -16 0 -14 3 -14
15 -4 9 7 13 15 10 18 -3 3 0 11 6 19 16 18 -8 17 -41 -2z"/>
<path d="M9974 20648 c-3 -4 2 -8 10 -8 8 0 17 4 20 8 3 5 -2 9 -10 9 -8 0
-17 -4 -20 -9z"/>
<path d="M10242 20633 c25 -27 23 -26 37 -9 9 11 7 13 -11 12 -13 0 -22 4 -21
10 1 6 -5 11 -13 11 -10 0 -9 -7 8 -24z"/>
<path d="M10392 20641 c7 -9 13 -18 15 -20 1 -2 1 5 0 16 0 11 -7 20 -14 20
-10 0 -10 -4 -1 -16z"/>
<path d="M10563 20645 c0 -6 6 -12 12 -12 6 0 12 6 12 12 0 6 -6 12 -12 12 -6
0 -12 -6 -12 -12z"/>
<path d="M10603 20640 c1 -16 -3 -24 -10 -22 -17 3 -16 -3 3 -18 12 -11 15
-11 12 1 -2 8 3 13 11 11 11 -2 12 0 4 10 -6 7 -13 20 -16 28 -4 8 -5 4 -4
-10z"/>
<path d="M10632 20641 c7 -9 13 -18 15 -20 1 -2 1 5 0 16 0 11 -7 20 -14 20
-10 0 -10 -4 -1 -16z"/>
<path d="M10963 20645 c0 -6 6 -12 12 -12 6 0 12 6 12 12 0 6 -6 12 -12 12 -6
0 -12 -6 -12 -12z"/>
<path d="M10085 20640 c-3 -5 1 -10 10 -10 9 0 13 5 10 10 -3 6 -8 10 -10 10
-2 0 -7 -4 -10 -10z"/>
<path d="M10909 20648 c0 -2 -2 -11 -4 -21 -3 -15 -1 -16 11 -6 7 6 11 15 8
20 -5 9 -13 12 -15 7z"/>
<path d="M11004 20628 c5 -33 -16 -55 -33 -35 -6 8 -9 16 -6 19 3 2 -1 5 -8 5
-8 0 -14 -6 -14 -14 0 -7 3 -11 5 -8 3 3 12 -1 20 -7 14 -12 49 -22 38 -11 -3
4 0 13 8 22 13 14 12 19 0 36 -15 19 -15 19 -10 -7z"/>
<path d="M11145 20641 c-3 -7 -1 -10 6 -9 7 2 13 -2 14 -9 0 -14 25 -42 25
-28 0 4 8 1 18 -8 15 -14 19 -14 19 -3 0 8 -5 14 -11 13 -6 -1 -9 5 -8 13 2 8
0 12 -4 7 -4 -4 -18 2 -30 14 -14 13 -24 17 -29 10z"/>
<path d="M29800 20642 c0 -5 7 -9 15 -9 8 0 15 4 15 9 0 4 -7 8 -15 8 -8 0
-15 -4 -15 -8z"/>
<path d="M10431 20627 c-8 -10 -7 -14 2 -14 8 0 14 6 14 14 0 7 -1 13 -2 13
-2 0 -8 -6 -14 -13z"/>
<path d="M10485 20632 c3 -3 1 -10 -5 -16 -6 -8 -3 -12 10 -13 12 -1 18 4 17
16 0 10 -7 18 -14 18 -7 0 -11 -3 -8 -5z"/>
<path d="M10663 20625 c0 -6 6 -12 12 -12 6 0 12 6 12 12 0 6 -6 12 -12 12 -6
0 -12 -6 -12 -12z"/>
<path d="M11119 20635 c-1 -3 -2 -8 -3 -12 -1 -5 -4 -13 -8 -19 -4 -6 -1 -11
5 -11 7 0 13 11 13 24 0 21 -4 31 -7 18z"/>
<path d="M11243 20627 c0 -8 6 -14 14 -14 9 0 10 4 2 14 -6 7 -12 13 -14 13
-1 0 -2 -6 -2 -13z"/>
<path d="M10366 20621 c-4 -5 -2 -12 3 -15 5 -4 12 -2 15 3 4 5 2 12 -3 15 -5
4 -12 2 -15 -3z"/>
<path d="M11395 20614 c-11 -8 -14 -14 -6 -14 10 0 11 -3 2 -14 -8 -9 -8 -16
-2 -20 5 -4 12 -2 16 4 3 5 3 10 -1 10 -4 0 1 9 10 19 21 23 8 34 -19 15z"/>
<path d="M10529 20603 c-13 -16 -12 -17 4 -4 9 7 17 15 17 17 0 8 -8 3 -21
-13z"/>
<path d="M10703 20607 c0 -8 6 -14 14 -14 9 0 10 4 2 14 -6 7 -12 13 -14 13
-1 0 -2 -6 -2 -13z"/>
<path d="M10765 20601 c2 -19 18 -17 21 2 1 8 -4 14 -11 14 -7 0 -12 -7 -10
-16z"/>
<path d="M11822 20610 c2 -8 -2 -14 -9 -15 -24 0 -32 -20 -16 -40 11 -14 14
-15 10 -3 -3 9 3 24 14 34 17 15 23 13 21 -7 -2 -14 30 -4 45 15 17 20 17 20
-1 6 -23 -18 -20 -19 -46 5 -15 13 -20 15 -18 5z"/>
<path d="M25753 20613 c-7 -3 -13 -9 -13 -14 0 -14 26 -11 39 4 11 14 0 18
-26 10z"/>
<path d="M11446 20602 c-3 -5 1 -15 8 -21 11 -10 14 -9 12 3 -3 21 -13 29 -20
18z"/>
<path d="M11679 20597 c-19 -14 -21 -44 -2 -44 9 0 10 4 2 13 -6 8 -7 14 0 18
5 4 14 -2 20 -11 10 -16 10 -16 8 4 -4 30 -9 34 -28 20z"/>
<path d="M10646 20588 c3 -5 10 -6 15 -3 13 9 11 12 -6 12 -8 0 -12 -4 -9 -9z"/>
<path d="M10806 20588 c3 -5 10 -6 15 -3 13 9 11 12 -6 12 -8 0 -12 -4 -9 -9z"/>
<path d="M10866 20588 c3 -5 9 -7 12 -4 3 3 12 0 21 -6 13 -10 14 -10 4 2 -15
16 -46 23 -37 8z"/>
<path d="M11045 20581 c2 -19 18 -17 21 2 1 8 -4 14 -11 14 -7 0 -12 -7 -10
-16z"/>
<path d="M25699 20573 c-13 -15 -17 -22 -7 -15 10 8 18 9 22 3 8 -12 36 -3 36
10 0 5 -6 8 -12 7 -7 -2 -12 3 -10 10 3 18 -2 15 -29 -15z"/>
<path d="M11083 20580 c2 -8 8 -15 13 -15 5 0 15 -4 22 -8 7 -5 12 -4 12 2 0
10 -7 13 -26 10 -4 0 -11 5 -16 13 -8 10 -9 10 -5 -2z"/>
<path d="M11729 20589 c0 -2 -2 -11 -4 -20 -1 -9 3 -16 10 -16 7 0 12 6 11 13
-2 13 -15 31 -17 23z"/>
<path d="M12165 20581 c-3 -6 -14 -8 -24 -6 -10 2 -18 -2 -18 -9 0 -7 10 -13
21 -12 12 1 20 -4 19 -11 -3 -14 23 -11 38 4 9 9 7 11 -7 9 -27 -5 -37 4 -23
20 6 8 9 14 6 14 -3 0 -8 -4 -12 -9z"/>
<path d="M11146 20568 c3 -5 10 -6 15 -3 13 9 11 12 -6 12 -8 0 -12 -4 -9 -9z"/>
<path d="M11251 20567 c-8 -10 -7 -14 2 -14 8 0 14 6 14 14 0 7 -1 13 -2 13
-2 0 -8 -6 -14 -13z"/>
<path d="M11315 20569 c-3 -3 3 -13 13 -20 9 -7 14 -9 10 -5 -4 5 -3 14 2 21
7 8 5 12 -6 12 -8 0 -17 -4 -19 -8z"/>
<path d="M11491 20567 c-8 -10 -7 -14 2 -14 8 0 14 6 14 14 0 7 -1 13 -2 13
-2 0 -8 -6 -14 -13z"/>
<path d="M11891 20567 c-9 -12 -7 -14 11 -13 17 1 23 -4 22 -19 0 -11 -6 -19
-13 -17 -7 1 -9 -2 -6 -8 5 -8 12 -6 24 4 15 14 19 14 33 0 13 -13 17 -13 23
-2 5 7 4 10 0 5 -5 -4 -25 9 -45 28 -31 30 -39 34 -49 22z"/>
<path d="M12335 20571 c-3 -6 -10 -9 -15 -6 -5 3 -11 1 -15 -4 -3 -6 4 -8 16
-6 25 5 35 13 27 21 -3 3 -9 0 -13 -5z"/>
<path d="M12066 20561 c-4 -5 -2 -12 3 -15 5 -4 12 -2 15 3 4 5 2 12 -3 15 -5
4 -12 2 -15 -3z"/>
<path d="M25645 20560 c-3 -5 -1 -10 4 -10 6 0 11 5 11 10 0 6 -2 10 -4 10 -3
0 -8 -4 -11 -10z"/>
<path d="M11186 20548 c3 -5 10 -6 15 -3 13 9 11 12 -6 12 -8 0 -12 -4 -9 -9z"/>
<path d="M11426 20548 c3 -5 10 -6 15 -3 13 9 11 12 -6 12 -8 0 -12 -4 -9 -9z"/>
<path d="M11523 20547 c0 -8 6 -14 14 -14 9 0 10 4 2 14 -6 7 -12 13 -14 13
-1 0 -2 -6 -2 -13z"/>
<path d="M11591 20546 c-10 -12 -9 -14 6 -11 10 1 25 -4 33 -11 14 -11 16 -10
17 14 0 15 -1 19 -4 9 -4 -17 -6 -17 -22 -3 -16 14 -20 15 -30 2z"/>
<path d="M11763 20547 c0 -8 6 -14 14 -14 9 0 10 4 2 14 -6 7 -12 13 -14 13
-1 0 -2 -6 -2 -13z"/>
<path d="M11829 20547 c7 -7 17 -12 24 -12 7 -1 11 -6 10 -11 -1 -6 4 -11 11
-11 7 0 13 6 13 14 0 7 -3 11 -5 8 -3 -3 -12 1 -20 7 -20 17 -49 21 -33 5z"/>
<path d="M12003 20545 c0 -6 6 -12 12 -12 6 0 12 6 12 12 0 6 -6 12 -12 12 -6
0 -12 -6 -12 -12z"/>
<path d="M12234 20549 c-8 -14 14 -19 25 -6 8 10 7 14 -5 14 -8 0 -17 -4 -20
-8z"/>
<path d="M12404 20536 c1 -15 -5 -21 -19 -21 -11 0 -20 6 -20 13 0 11 -15 18
-15 7 -1 -16 19 -36 39 -40 13 -2 21 -2 17 2 -3 3 0 13 6 21 17 20 18 39 3 39
-7 0 -12 -10 -11 -21z"/>
<path d="M12567 20550 c7 -8 20 -15 29 -16 9 -1 13 1 9 4 -4 4 -10 7 -13 7 -4
0 -14 4 -22 9 -12 7 -13 6 -3 -4z"/>
<path d="M12043 20532 c2 -12 8 -27 14 -33 15 -15 12 8 -5 36 -11 19 -12 19
-9 -3z"/>
<path d="M12743 20533 c11 -13 14 -23 8 -27 -5 -4 -14 1 -19 11 -8 13 -10 10
-9 -14 2 -29 2 -30 23 -14 12 9 22 24 21 33 -1 9 -3 15 -6 13 -2 -3 -11 1 -20
7 -11 9 -10 6 2 -9z"/>
<path d="M11466 20528 c3 -5 10 -6 15 -3 13 9 11 12 -6 12 -8 0 -12 -4 -9 -9z"/>
<path d="M11711 20524 c6 -7 16 -11 21 -8 11 7 3 17 -18 20 -12 2 -13 -1 -3
-12z"/>
<path d="M12103 20525 c0 -6 6 -12 12 -12 6 0 12 6 12 12 0 6 -6 12 -12 12 -6
0 -12 -6 -12 -12z"/>
<path d="M12274 20529 c-8 -14 14 -19 25 -6 8 10 7 14 -5 14 -8 0 -17 -4 -20
-8z"/>
<path d="M12450 20525 c-15 -18 1 -26 23 -10 15 10 15 14 3 18 -8 3 -20 0 -26
-8z"/>
<path d="M12685 20521 c2 -19 18 -17 21 2 1 8 -4 14 -11 14 -7 0 -12 -7 -10
-16z"/>
<path d="M12322 20515 c2 -13 -2 -19 -11 -17 -12 3 -12 1 -1 -15 8 -10 16 -20
18 -23 2 -3 2 4 0 15 -2 13 2 19 11 17 12 -3 12 -1 1 15 -8 10 -16 20 -18 23
-2 3 -2 -4 0 -15z"/>
<path d="M12849 20524 c-2 -6 -6 -23 -8 -30 0 -4 -8 0 -17 7 -21 18 -41 20
-41 4 0 -7 10 -12 21 -11 12 1 20 -4 19 -10 -1 -6 4 -11 12 -11 8 0 14 3 13 6
-2 19 4 24 13 11 8 -12 9 -11 7 5 -2 13 2 19 12 17 8 -2 11 0 7 4 -8 9 -36 15
-38 8z"/>
<path d="M12143 20505 c0 -6 6 -12 12 -12 6 0 12 6 12 12 0 6 -6 12 -12 12 -6
0 -12 -6 -12 -12z"/>
<path d="M12213 20499 c6 -10 19 -17 29 -16 27 5 32 15 6 13 -13 0 -22 4 -21
10 1 6 -4 11 -12 11 -10 0 -11 -4 -2 -18z"/>
<path d="M12549 20504 c-7 -9 -6 -12 6 -10 22 3 40 23 20 23 -8 0 -20 -6 -26
-13z"/>
<path d="M13238 20502 c-3 -11 6 -31 23 -50 22 -24 27 -27 26 -12 -1 10 -6 18
-12 17 -5 -1 -9 4 -7 11 1 6 -4 11 -10 10 -8 -2 -12 6 -10 20 4 26 -4 30 -10
4z"/>
<path d="M12180 20501 c0 -6 4 -13 10 -16 6 -3 7 1 4 9 -7 18 -14 21 -14 7z"/>
<path d="M12489 20509 c0 -2 -2 -12 -4 -21 -2 -10 0 -17 3 -16 4 1 15 -2 25
-7 10 -4 23 -3 28 2 7 7 3 10 -13 9 -12 0 -23 4 -23 11 0 11 -14 31 -16 22z"/>
<path d="M13125 20501 c-3 -6 -3 -11 1 -11 4 0 -1 -9 -10 -19 -11 -12 -14 -21
-7 -26 6 -3 12 -4 12 -1 1 3 3 11 4 16 1 6 3 13 4 18 1 4 6 0 11 -8 8 -12 9
-10 7 7 -4 28 -13 38 -22 24z"/>
<path d="M12423 20487 c0 -8 6 -14 14 -14 9 0 10 4 2 14 -6 7 -12 13 -14 13
-1 0 -2 -6 -2 -13z"/>
<path d="M12641 20476 c-14 -15 -19 -26 -12 -31 11 -6 13 -5 15 18 0 6 10 12
21 12 11 -1 19 -6 18 -11 -1 -6 5 -11 13 -11 10 0 9 7 -8 24 -12 13 -22 23
-23 23 -1 0 -12 -11 -24 -24z"/>
<path d="M12883 20484 c0 -7 7 -11 16 -9 26 4 33 -6 17 -24 -14 -15 -14 -18
-2 -18 8 0 14 5 13 11 -1 6 3 10 9 9 6 -1 11 4 11 12 0 8 -3 14 -6 13 -18 -2
-24 3 -12 11 9 6 4 8 -16 8 -16 -1 -30 -7 -30 -13z"/>
<path d="M13063 20485 c0 -7 7 -11 16 -10 9 2 20 4 25 4 14 1 1 11 -21 15 -11
3 -20 -1 -20 -9z"/>
<path d="M12585 20481 c-3 -6 -11 -9 -16 -6 -5 4 -9 1 -9 -4 0 -6 10 -9 23 -7
20 3 25 11 14 22 -3 3 -8 0 -12 -5z"/>
<path d="M13407 20483 c-3 -4 1 -17 9 -28 14 -19 15 -19 11 2 -4 26 -13 38
-20 26z"/>
<path d="M12763 20463 c0 -7 3 -11 5 -8 3 3 13 -2 22 -10 15 -14 19 -14 31 2
9 11 10 14 2 9 -8 -4 -13 -2 -13 6 0 9 -3 9 -10 -2 -8 -13 -14 -8 -12 11 1 3
-5 6 -12 6 -7 0 -13 -6 -13 -14z"/>
<path d="M13163 20465 c0 -6 6 -12 12 -12 6 0 12 6 12 12 0 6 -6 12 -12 12 -6
0 -12 -6 -12 -12z"/>
<path d="M13202 20457 c2 -24 25 -34 25 -11 0 7 -5 10 -10 7 -6 -4 -8 0 -4 10
3 10 2 17 -3 17 -5 0 -9 -10 -8 -23z"/>
<path d="M12853 20453 c-7 -3 -13 -9 -13 -15 0 -7 5 -7 13 1 8 6 16 8 19 5 3
-3 8 -1 12 4 5 9 -10 12 -31 5z"/>
<path d="M12971 20446 c-8 -10 -9 -16 -1 -21 5 -3 10 -5 11 -3 4 18 7 38 4 38
-1 0 -8 -6 -14 -14z"/>
<path d="M13029 20444 c-7 -9 -6 -12 6 -10 22 3 40 23 20 23 -8 0 -20 -6 -26
-13z"/>
<path d="M13443 20445 c0 -6 6 -12 12 -12 6 0 12 6 12 12 0 6 -6 12 -12 12 -6
0 -12 -6 -12 -12z"/>
<path d="M13244 20430 c1 -14 6 -24 9 -22 11 4 11 6 -1 27 -11 19 -12 18 -8
-5z"/>
<path d="M13075 20430 c-3 -5 1 -10 10 -10 9 0 13 5 10 10 -3 6 -8 10 -10 10
-2 0 -7 -4 -10 -10z"/>
<path d="M13130 20430 c-8 -5 -7 -9 3 -13 9 -3 20 0 26 7 8 9 7 13 -4 13 -8 0
-19 -3 -25 -7z"/>
<path d="M13311 20426 c-7 -8 -8 -17 -3 -20 6 -3 15 1 21 8 7 8 8 17 3 20 -6
3 -15 -1 -21 -8z"/>
<path d="M13483 20427 c0 -8 6 -14 14 -14 9 0 10 4 2 14 -6 7 -12 13 -14 13
-1 0 -2 -6 -2 -13z"/>
<path d="M13545 20432 c3 -3 -2 -13 -10 -22 -13 -14 -13 -17 -1 -17 8 0 14 5
13 11 -1 6 3 10 9 9 6 -1 11 4 11 11 0 7 -6 13 -14 13 -7 0 -11 -3 -8 -5z"/>
<path d="M25480 20425 c-14 -7 -33 -16 -43 -19 -10 -3 -16 -10 -12 -16 3 -5
20 -1 40 10 26 15 36 16 44 7 7 -10 4 -13 -11 -14 -11 -1 -30 -11 -42 -21 -11
-11 -29 -18 -38 -17 -9 2 -22 -2 -27 -9 -8 -9 1 -12 37 -11 39 0 49 4 59 25 7
14 18 25 25 25 18 0 22 30 6 43 -10 8 -20 7 -38 -3z m-5 -62 c-2 -10 -4 -19
-4 -21 -1 -2 -6 0 -11 3 -8 5 -7 11 1 21 15 18 18 18 14 -3z"/>
<path d="M13416 20411 c-4 -5 -2 -12 4 -16 5 -3 10 -3 10 1 0 3 6 1 14 -5 11
-9 16 -9 22 1 4 7 3 10 -1 5 -5 -4 -16 0 -26 9 -10 9 -19 11 -23 5z"/>
<path d="M13583 20405 c0 -6 6 -12 12 -12 6 0 12 6 12 12 0 6 -6 12 -12 12 -6
0 -12 -6 -12 -12z"/>
<path d="M13691 20384 c6 -7 16 -11 21 -8 11 7 3 17 -18 20 -12 2 -13 -1 -3
-12z"/>
<path d="M25559 20353 c-17 -20 -18 -23 -3 -10 11 9 23 15 26 12 2 -3 5 2 5
10 0 19 1 20 -28 -12z"/>
<path d="M25343 20323 c-7 -2 -13 -9 -13 -15 0 -7 5 -7 13 1 8 6 18 7 22 3 5
-4 5 -1 1 6 -4 6 -8 12 -9 11 -1 0 -8 -3 -14 -6z"/>
<path d="M25446 20321 c-4 -5 -2 -12 3 -15 5 -4 12 -2 15 3 4 5 2 12 -3 15 -5
4 -12 2 -15 -3z"/>
<path d="M25390 20310 c-8 -5 -12 -12 -9 -15 4 -3 12 1 19 10 14 17 11 19 -10
5z"/>
<path d="M25260 20241 c0 -7 -5 -9 -12 -5 -7 5 -8 3 -3 -5 5 -9 10 -10 18 -2
6 6 8 14 4 18 -4 3 -7 1 -7 -6z"/>
<path d="M25293 20223 c-18 -7 -33 -18 -33 -24 0 -8 -4 -8 -13 0 -11 8 -19 5
-38 -16 -13 -14 -17 -22 -9 -17 8 5 23 9 33 10 9 1 18 3 20 4 3 3 57 7 57 4 0
-6 -68 -35 -87 -38 -10 -2 -18 -9 -18 -17 0 -8 -9 -14 -21 -13 -11 1 -21 -4
-21 -11 0 -13 35 -14 55 -2 7 5 10 12 7 17 -3 5 -1 11 4 14 22 14 20 -15 -3
-35 -14 -12 -23 -26 -20 -31 3 -5 13 -3 22 5 10 9 26 17 37 19 26 4 44 21 37
33 -4 6 -7 16 -8 23 -2 10 1 11 12 1 8 -6 15 -9 15 -5 5 24 4 33 -9 48 -14 17
-7 27 19 23 9 -2 16 3 16 9 0 16 -14 16 -54 -1z m1 -21 c3 -5 -1 -9 -9 -9 -8
0 -12 4 -9 9 3 4 7 8 9 8 2 0 6 -4 9 -8z m-18 -67 c-2 -25 -20 -36 -22 -12 0
10 14 37 21 37 1 0 1 -11 1 -25z"/>
<path d="M25140 20164 c-14 -7 -18 -13 -10 -13 24 1 54 15 44 21 -5 4 -20 0
-34 -8z"/>
<path d="M25317 20118 c8 -9 20 -16 27 -15 6 1 10 -3 9 -9 -2 -9 4 -9 22 -1
17 9 21 15 13 24 -6 7 -14 11 -18 8 -5 -3 -11 -1 -15 5 -3 5 -17 9 -30 8 -22
-2 -23 -4 -8 -20z m63 -4 c0 -8 -19 -13 -24 -6 -3 5 1 9 9 9 8 0 15 -2 15 -3z"/>
<path d="M25125 20100 c-4 -6 -10 -8 -15 -5 -4 3 -14 -3 -21 -13 -11 -14 -11
-15 1 -5 10 10 17 10 27 1 11 -9 13 -8 11 3 -2 8 3 13 10 11 8 -1 11 2 7 8 -8
13 -12 13 -20 0z"/>
<path d="M25083 20023 c0 -9 4 -10 14 -2 7 6 13 12 13 14 0 1 -6 2 -13 2 -8 0
-14 -6 -14 -14z"/>
<path d="M25005 19941 c-3 -5 -2 -12 3 -15 5 -3 9 1 9 9 0 17 -3 19 -12 6z"/>
<path d="M24939 19913 c-13 -16 -12 -17 3 -5 11 9 18 10 23 2 3 -6 11 -8 16
-4 12 7 2 24 -15 24 -8 0 -20 -8 -27 -17z"/>
<path d="M25320 19836 c0 -2 8 -10 18 -17 15 -13 16 -12 3 4 -13 16 -21 21
-21 13z"/>
<path d="M29464 19817 c0 -13 5 -24 12 -24 14 0 12 23 -2 37 -7 7 -10 2 -10
-13z"/>
<path d="M25155 19810 c-10 -11 -21 -18 -25 -15 -4 2 -7 -3 -7 -11 0 -10 9 -6
29 13 15 15 28 28 28 30 0 7 -8 2 -25 -17z"/>
<path d="M29410 19805 c-6 -8 -10 -19 -8 -24 1 -6 8 1 15 14 13 28 11 31 -7
10z"/>
<path d="M25186 19802 c-3 -5 1 -9 9 -9 8 0 12 4 9 9 -3 4 -7 8 -9 8 -2 0 -6
-4 -9 -8z"/>
<path d="M29420 19724 c0 -8 5 -12 10 -9 6 4 8 11 5 16 -9 14 -15 11 -15 -7z"/>
<path d="M25306 19721 c-4 -5 -2 -12 3 -15 5 -4 12 -2 15 3 4 5 2 12 -3 15 -5
4 -12 2 -15 -3z"/>
<path d="M25369 19724 c-1 -2 -2 -10 -3 -16 0 -7 -7 -14 -13 -14 -7 -1 -17 -2
-23 -3 -5 0 -8 -11 -6 -23 3 -22 20 -28 22 -8 3 23 6 24 15 5 9 -19 9 -19 5 2
-2 12 4 29 13 37 21 19 36 9 19 -12 -17 -20 -18 -39 -3 -39 7 0 12 9 11 20 -1
12 6 21 17 23 23 3 35 14 19 15 -15 2 -31 6 -34 9 -6 4 -38 8 -39 4z"/>
<path d="M25476 19711 c-4 -5 -2 -12 3 -15 5 -4 12 -2 15 3 4 5 2 12 -3 15 -5
4 -12 2 -15 -3z"/>
<path d="M25644 19696 c1 -15 -5 -21 -19 -21 -11 0 -20 6 -20 13 0 6 -3 12 -7
12 -15 0 -13 -9 5 -31 l19 -21 22 21 c24 23 30 48 11 48 -7 0 -12 -10 -11 -21z"/>
<path d="M25153 19688 c-11 -13 -19 -15 -24 -7 -9 15 -29 3 -29 -18 0 -11 4
-13 13 -6 14 11 27 11 43 1 7 -5 11 1 10 15 0 12 4 22 11 22 6 0 14 3 17 6 3
3 -1 6 -9 6 -8 0 -22 -9 -32 -19z"/>
<path d="M25509 19684 c-7 -9 -6 -12 6 -10 22 3 40 23 20 23 -8 0 -20 -6 -26
-13z"/>
<path d="M29325 19667 c0 -18 5 -33 10 -35 14 -3 14 46 0 58 -8 7 -11 1 -10
-23z"/>
<path d="M29421 19684 c0 -11 3 -14 6 -6 3 7 2 16 -1 19 -3 4 -6 -2 -5 -13z"/>
<path d="M25447 19683 c-8 -13 18 -42 36 -39 26 4 30 14 5 12 -13 0 -23 4 -23
11 0 16 -12 26 -18 16z"/>
<path d="M25188 19667 c-10 -6 -9 -8 3 -4 9 3 21 1 26 -4 6 -6 10 -5 10 4 0
16 -20 18 -39 4z"/>
<path d="M25240 19676 c0 -2 7 -9 15 -16 13 -11 14 -10 9 4 -5 14 -24 23 -24
12z"/>
<path d="M25551 19666 c-7 -9 -8 -16 -2 -20 5 -4 12 -2 16 4 9 14 27 1 19 -13
-4 -7 -4 -9 1 -5 5 5 13 -2 19 -14 12 -24 43 -33 43 -12 0 8 -3 12 -6 9 -2 -3
-21 11 -41 30 -31 31 -39 34 -49 21z"/>
<path d="M25420 19661 c0 -6 4 -13 10 -16 6 -3 7 1 4 9 -7 18 -14 21 -14 7z"/>
<path d="M25019 19633 c-13 -16 -12 -17 4 -4 9 7 17 15 17 17 0 8 -8 3 -21
-13z"/>
<path d="M25703 19604 c0 -8 3 -12 5 -9 3 3 12 -1 21 -8 13 -12 20 -12 41 0
20 11 21 13 5 11 -11 -1 -27 2 -35 7 -23 15 -37 14 -37 -1z m38 -11 c13 -16
12 -17 -3 -4 -17 13 -22 21 -14 21 2 0 10 -8 17 -17z"/>
<path d="M24939 19593 c-13 -16 -12 -17 4 -4 16 13 21 21 13 21 -2 0 -10 -8
-17 -17z"/>
<path d="M25660 19606 c0 -2 7 -7 16 -10 8 -3 12 -2 9 4 -6 10 -25 14 -25 6z"/>
<path d="M25953 19603 c4 -6 4 -13 0 -16 -5 -2 -2 -2 4 -1 7 2 17 -5 22 -14 9
-15 10 -14 8 5 0 12 -3 20 -6 18 -2 -3 -11 1 -19 8 -11 8 -14 8 -9 0z"/>
<path d="M26010 19610 c-1 -3 -3 -17 -4 -31 -2 -21 1 -26 18 -25 15 1 21 -5
20 -20 -1 -11 4 -21 11 -21 18 0 12 23 -12 49 -11 13 -23 30 -26 38 -3 8 -6
13 -7 10z"/>
<path d="M26206 19601 c-4 -5 -2 -12 3 -15 5 -4 12 -2 15 3 4 5 2 12 -3 15 -5
4 -12 2 -15 -3z"/>
<path d="M25511 19587 c-8 -10 -7 -14 2 -14 8 0 14 6 14 14 0 7 -1 13 -2 13
-2 0 -8 -6 -14 -13z"/>
<path d="M25562 19591 c2 -19 -4 -24 -12 -11 -7 12 -9 11 -8 -6 1 -11 8 -21
14 -21 7 0 13 3 12 6 -2 19 4 24 12 11 7 -12 9 -11 8 6 -1 11 -8 21 -14 21 -7
0 -13 -3 -12 -6z"/>
<path d="M26121 19584 c0 -11 3 -14 6 -6 3 7 2 16 -1 19 -3 4 -6 -2 -5 -13z"/>
<path d="M26143 19585 c0 -6 6 -12 12 -12 6 0 12 6 12 12 0 6 -6 12 -12 12 -6
0 -12 -6 -12 -12z"/>
<path d="M29273 19588 c-9 -16 -14 -42 -6 -34 4 3 13 0 22 -7 14 -10 14 -10 5
3 -6 8 -10 23 -9 33 4 20 -1 22 -12 5z"/>
<path d="M26089 19588 c-4 -19 -9 -51 -6 -47 1 2 8 11 15 21 9 11 10 18 2 23
-5 3 -10 5 -11 3z"/>
<path d="M26236 19574 c-11 -8 -16 -14 -10 -15 5 0 16 -2 25 -4 10 -2 16 3 15
11 -3 22 -10 23 -30 8z"/>
<path d="M25605 19561 c2 -19 18 -17 21 2 1 8 -4 14 -11 14 -7 0 -12 -7 -10
-16z"/>
<path d="M25670 19565 c5 -7 7 -15 3 -18 -3 -4 -1 -7 5 -7 6 0 10 8 9 18 0 10
-7 19 -14 19 -9 0 -10 -4 -3 -12z"/>
<path d="M25774 19568 c-5 -7 -9 -16 -10 -20 -1 -5 -2 -11 -3 -14 0 -4 -8 0
-17 7 -15 12 -44 21 -44 14 0 -2 13 -10 30 -18 19 -10 32 -12 36 -5 4 6 10 5
16 -3 7 -11 8 -10 6 3 -2 9 2 17 7 17 6 1 10 -3 10 -9 0 -5 4 -10 8 -11 18 -2
16 9 -7 30 -19 18 -26 20 -32 9z"/>
<path d="M26180 19567 c0 -8 7 -14 15 -14 11 0 12 4 4 14 -6 7 -13 13 -15 13
-2 0 -4 -6 -4 -13z"/>
<path d="M25643 19551 c0 -11 5 -18 9 -15 4 3 5 11 1 19 -7 21 -12 19 -10 -4z"/>
<path d="M25945 19560 c-3 -5 -3 -10 1 -10 4 0 -1 -10 -12 -22 -10 -13 -12
-18 -5 -11 7 6 19 10 25 9 6 -2 7 -1 3 2 -4 2 -3 10 3 17 7 8 7 15 1 19 -5 4
-12 2 -16 -4z"/>
<path d="M25474 19549 c-8 -14 14 -19 25 -6 8 10 7 14 -5 14 -8 0 -17 -4 -20
-8z"/>
<path d="M25883 19547 c0 -8 6 -14 14 -14 9 0 10 4 2 14 -6 7 -12 13 -14 13
-1 0 -2 -6 -2 -13z"/>
<path d="M26116 19551 c-4 -5 -2 -12 3 -15 5 -4 12 -2 15 3 4 5 2 12 -3 15 -5
4 -12 2 -15 -3z"/>
<path d="M26514 19548 c-3 -4 -4 -8 -2 -9 25 -6 35 -5 35 5 0 14 -25 17 -33 4z"/>
<path d="M26763 19546 c1 -5 -3 -10 -10 -11 -24 0 -32 -20 -17 -40 l16 -20 -4
20 c-2 14 2 19 12 17 8 -2 12 0 7 4 -4 4 0 15 8 24 13 14 13 17 1 17 -8 0 -14
-5 -13 -11z"/>
<path d="M29135 19551 c-3 -5 -2 -12 3 -15 5 -3 9 1 9 9 0 17 -3 19 -12 6z"/>
<path d="M29182 19556 c4 -5 2 -16 -4 -24 -14 -16 -20 -44 -8 -37 5 3 11 0 13
-5 3 -6 4 -5 3 2 -2 7 3 20 11 29 12 14 11 18 -4 30 -10 7 -15 9 -11 5z"/>
<path d="M26627 19543 c-3 -4 1 -17 9 -28 14 -19 15 -19 11 2 -4 26 -13 38
-20 26z"/>
<path d="M26869 19547 c-1 -4 -2 -13 -3 -19 -1 -7 -7 -12 -13 -11 -6 1 -16 -3
-22 -10 -8 -10 -4 -13 14 -13 13 0 23 2 23 6 -2 18 4 23 12 10 8 -12 9 -10 7
7 -3 22 -16 43 -18 30z"/>
<path d="M25983 19526 c0 -7 11 -12 24 -12 20 0 34 15 16 17 -5 0 -15 2 -24 4
-9 1 -16 -3 -16 -9z"/>
<path d="M26155 19531 c-3 -5 -2 -12 3 -15 5 -3 9 1 9 9 0 17 -3 19 -12 6z"/>
<path d="M26223 19524 c0 -7 3 -13 6 -12 3 0 8 -1 11 -2 18 -7 41 -7 45 0 2 4
-5 7 -18 6 -12 0 -21 4 -20 10 1 6 -4 11 -11 11 -7 0 -13 -6 -13 -13z"/>
<path d="M26794 19529 c-8 -14 14 -19 25 -6 8 10 7 14 -5 14 -8 0 -17 -4 -20
-8z"/>
<path d="M26964 19516 c1 -12 -4 -20 -10 -19 -6 1 -11 -4 -11 -11 0 -7 6 -13
14 -13 7 0 11 3 8 5 -3 3 1 12 7 20 17 20 18 39 3 39 -7 0 -12 -10 -11 -21z"/>
<path d="M29246 19528 c4 -5 9 -7 12 -4 9 9 32 -15 25 -27 -4 -6 -1 -7 6 -3 9
6 9 12 -3 25 -16 18 -50 25 -40 9z"/>
<path d="M26326 19522 c-3 -5 1 -15 8 -21 11 -10 14 -9 12 3 -3 21 -13 29 -20
18z"/>
<path d="M26603 19503 c1 -23 6 -29 24 -29 l23 0 -23 26 c-12 14 -23 26 -23
28 -1 2 -1 -10 -1 -25z"/>
<path d="M27145 19520 c-4 -6 -10 -8 -13 -6 -4 2 -12 -6 -18 -18 -8 -17 -7
-23 2 -23 7 0 12 5 11 11 -1 6 4 10 11 9 6 -2 11 3 10 10 -2 6 3 11 10 9 8 -1
11 2 7 8 -8 13 -12 13 -20 0z"/>
<path d="M26431 19507 c-8 -10 -7 -14 2 -14 8 0 14 6 14 14 0 7 -1 13 -2 13
-2 0 -8 -6 -14 -13z"/>
<path d="M26497 19498 c17 -19 28 -24 18 -9 -3 6 2 14 12 19 13 8 10 10 -15 9
-29 -2 -30 -3 -15 -19z"/>
<path d="M26663 19505 c0 -6 6 -12 12 -12 6 0 12 6 12 12 0 6 -6 12 -12 12 -6
0 -12 -6 -12 -12z"/>
<path d="M27071 19506 c-10 -11 -9 -14 1 -12 14 2 23 15 15 22 -2 2 -10 -2
-16 -10z"/>
<path d="M27304 19496 c1 -12 -4 -20 -10 -19 -6 1 -11 -4 -11 -11 0 -7 6 -13
14 -13 7 0 11 3 8 5 -3 3 1 12 7 20 17 20 18 39 3 39 -7 0 -12 -10 -11 -21z"/>
<path d="M27523 19497 c2 -15 6 -27 10 -27 9 0 9 5 -3 32 -9 22 -9 21 -7 -5z"/>
<path d="M26703 19493 c0 -11 7 -20 14 -20 10 0 10 4 1 16 -7 9 -13 18 -15 20
-1 2 -1 -5 0 -16z"/>
<path d="M27405 19501 c-3 -6 -3 -11 1 -11 4 0 0 -8 -9 -17 -13 -16 -14 -21
-2 -37 13 -18 14 -17 12 10 -2 32 17 40 44 17 13 -11 16 -11 16 2 0 8 -3 13
-5 10 -3 -3 -16 4 -28 16 -14 13 -24 17 -29 10z"/>
<path d="M27486 19502 c-3 -5 1 -9 9 -9 8 0 12 4 9 9 -3 4 -7 8 -9 8 -2 0 -6
-4 -9 -8z"/>
<path d="M28866 19502 c-3 -5 1 -9 9 -9 8 0 12 4 9 9 -3 4 -7 8 -9 8 -2 0 -6
-4 -9 -8z"/>
<path d="M26536 19492 c-3 -5 1 -9 9 -9 8 0 12 4 9 9 -3 4 -7 8 -9 8 -2 0 -6
-4 -9 -8z"/>
<path d="M26763 19485 c0 -6 6 -12 12 -12 6 0 12 6 12 12 0 6 -6 12 -12 12 -6
0 -12 -6 -12 -12z"/>
<path d="M27183 19483 c0 -7 3 -11 5 -8 3 3 13 -2 23 -11 11 -10 19 -12 24 -5
6 11 5 12 -17 15 -7 1 -12 7 -11 12 1 6 -4 11 -11 11 -7 0 -13 -6 -13 -14z"/>
<path d="M27343 19485 c0 -7 7 -11 16 -10 9 2 20 4 25 4 14 1 1 11 -21 15 -11
3 -20 -1 -20 -9z"/>
<path d="M28907 19483 c-3 -4 1 -17 9 -28 8 -10 14 -13 14 -6 0 7 5 9 10 6 6
-4 8 -10 6 -14 -3 -4 1 -8 8 -8 7 0 13 6 13 14 0 7 -3 11 -5 8 -3 -3 -16 4
-28 16 -12 11 -24 17 -27 12z"/>
<path d="M26806 19468 c3 -5 10 -6 15 -3 13 9 11 12 -6 12 -8 0 -12 -4 -9 -9z"/>
<path d="M26840 19470 c0 -5 5 -10 11 -10 5 0 7 5 4 10 -3 6 -8 10 -11 10 -2
0 -4 -4 -4 -10z"/>
<path d="M26876 19472 c-3 -5 1 -9 9 -9 8 0 12 4 9 9 -3 4 -7 8 -9 8 -2 0 -6
-4 -9 -8z"/>
<path d="M27043 19465 c0 -6 6 -12 12 -12 6 0 12 6 12 12 0 6 -6 12 -12 12 -6
0 -12 -6 -12 -12z"/>
<path d="M27623 19465 c0 -7 10 -12 21 -11 16 1 21 -5 20 -22 -1 -17 1 -20 12
-11 10 8 11 15 1 30 -6 10 -14 19 -17 20 -3 0 -12 2 -21 4 -9 1 -16 -3 -16
-10z"/>
<path d="M27692 19461 c7 -9 13 -18 15 -20 1 -2 1 5 0 16 0 11 -7 20 -14 20
-10 0 -10 -4 -1 -16z"/>
<path d="M27803 19468 c1 -7 -4 -12 -12 -10 -12 3 -12 1 -1 -15 8 -10 16 -20
18 -23 2 -3 2 4 0 15 -2 13 2 19 11 17 12 -3 12 0 1 12 -15 19 -21 20 -17 4z"/>
<path d="M27855 19470 c-3 -4 3 -15 13 -23 17 -15 18 -15 18 7 0 21 -21 32
-31 16z"/>
<path d="M28855 19472 c-2 -3 -2 -8 1 -13 5 -9 34 -1 34 10 0 8 -27 10 -35 3z"/>
<path d="M27081 19463 c-1 -17 16 -25 25 -12 4 7 3 9 -4 5 -5 -3 -13 0 -15 6
-4 9 -6 10 -6 1z"/>
<path d="M27969 19469 c0 -2 -2 -11 -4 -20 -2 -11 4 -16 19 -15 11 1 20 -4 19
-10 -1 -6 4 -11 11 -11 7 0 13 6 13 14 0 7 -3 11 -5 8 -3 -3 -16 5 -29 17 -13
12 -23 20 -24 17z"/>
<path d="M28098 19448 c2 -10 6 -18 7 -18 1 0 5 8 7 18 3 11 0 19 -7 19 -7 0
-10 -8 -7 -19z"/>
<path d="M27133 19453 c-7 -3 -13 -9 -13 -15 0 -7 5 -7 13 1 8 6 16 8 19 5 3
-3 8 -1 12 4 5 9 -10 12 -31 5z"/>
<path d="M27323 19445 c0 -6 6 -12 12 -12 6 0 12 6 12 12 0 6 -6 12 -12 12 -6
0 -12 -6 -12 -12z"/>
<path d="M27486 19441 c-10 -11 -13 -21 -7 -25 10 -7 24 10 27 32 3 16 0 15
-20 -7z"/>
<path d="M27723 19445 c0 -6 6 -12 12 -12 6 0 12 6 12 12 0 6 -6 12 -12 12 -6
0 -12 -6 -12 -12z"/>
<path d="M27903 19446 c0 -14 33 -14 46 0 3 4 -1 5 -10 1 -9 -3 -21 -1 -26 4
-6 6 -10 4 -10 -5z"/>
<path d="M28131 19447 c-9 -12 -7 -14 11 -13 26 1 31 -21 11 -45 -11 -13 -11
-16 2 -16 8 0 13 3 10 5 -3 3 1 12 7 20 7 7 13 24 14 35 2 12 0 16 -3 9 -4
-10 -9 -10 -23 3 -15 13 -19 13 -29 2z"/>
<path d="M27360 19441 c0 -6 4 -13 10 -16 6 -3 7 1 4 9 -7 18 -14 21 -14 7z"/>
<path d="M28067 19443 c-3 -4 1 -17 9 -28 14 -19 15 -19 11 2 -4 26 -13 38
-20 26z"/>
<path d="M28887 19443 c-8 -13 18 -43 40 -47 11 -3 20 1 20 8 0 7 -10 13 -21
12 -12 -1 -21 4 -21 11 0 16 -12 26 -18 16z"/>
<path d="M27288 19433 c7 -3 16 -2 19 1 4 3 -2 6 -13 5 -11 0 -14 -3 -6 -6z"/>
<path d="M27426 19428 c3 -5 10 -6 15 -3 13 9 11 12 -6 12 -8 0 -12 -4 -9 -9z"/>
<path d="M27523 19427 c0 -8 6 -14 14 -14 9 0 10 4 2 14 -6 7 -12 13 -14 13
-1 0 -2 -6 -2 -13z"/>
<path d="M27603 19427 c0 -8 6 -14 14 -14 9 0 10 4 2 14 -6 7 -12 13 -14 13
-1 0 -2 -6 -2 -13z"/>
<path d="M27764 19423 c2 -10 6 -17 10 -16 15 3 16 11 2 22 -12 10 -14 9 -12
-6z"/>
<path d="M27835 19431 c-6 -11 -5 -12 18 -15 6 -1 11 -7 10 -12 -1 -6 4 -11
11 -11 7 0 13 6 13 14 0 7 -3 11 -5 8 -3 -3 -13 2 -23 11 -11 10 -19 12 -24 5z"/>
<path d="M28243 19424 c0 -8 3 -12 5 -9 3 3 13 -2 23 -11 10 -9 20 -11 23 -6
6 11 -18 35 -38 38 -7 1 -13 -5 -13 -12z m38 -11 c13 -16 12 -17 -3 -4 -17 13
-22 21 -14 21 2 0 10 -8 17 -17z"/>
<path d="M28403 19425 c0 -6 6 -12 12 -12 6 0 12 6 12 12 0 6 -6 12 -12 12 -6
0 -12 -6 -12 -12z"/>
<path d="M28483 19419 c-1 -13 3 -19 11 -16 8 3 18 1 24 -5 6 -6 12 -6 16 0 3
6 2 13 -4 17 -5 3 -10 3 -10 -1 0 -4 -8 0 -18 9 -17 15 -18 15 -19 -4z"/>
<path d="M28984 19419 c-22 -25 -26 -46 -8 -46 10 0 11 4 3 13 -6 8 -7 14 0
18 5 4 15 -2 21 -11 9 -14 10 -15 7 -2 -3 9 -1 21 5 27 6 6 6 12 0 16 -5 3
-18 -4 -28 -15z"/>
<path d="M28443 19415 c2 -11 8 -29 15 -40 l12 -20 -3 20 c-2 11 -8 29 -15 40
l-12 20 3 -20z"/>
<path d="M27706 19408 c3 -5 10 -6 15 -3 13 9 11 12 -6 12 -8 0 -12 -4 -9 -9z"/>
<path d="M27929 19404 c-7 -9 -6 -12 8 -10 10 2 26 -2 35 -8 13 -7 21 -7 29 1
8 8 4 10 -13 9 -13 0 -22 4 -21 10 3 15 -25 14 -38 -2z"/>
<path d="M28103 19405 c0 -6 6 -12 12 -12 6 0 12 6 12 12 0 6 -6 12 -12 12 -6
0 -12 -6 -12 -12z"/>
<path d="M28323 19400 c1 -17 -2 -24 -12 -22 -12 3 -12 0 -1 -13 10 -12 16
-13 26 -4 9 7 11 16 5 23 -4 6 -11 18 -14 26 -4 8 -5 4 -4 -10z"/>
<path d="M28352 19401 c7 -9 13 -18 15 -20 1 -2 1 5 0 16 0 11 -7 20 -14 20
-10 0 -10 -4 -1 -16z"/>
<path d="M27806 19402 c-3 -5 1 -9 9 -9 8 0 12 4 9 9 -3 4 -7 8 -9 8 -2 0 -6
-4 -9 -8z"/>
<path d="M28046 19401 c-4 -5 -2 -12 3 -15 5 -4 12 -2 15 3 4 5 2 12 -3 15 -5
4 -12 2 -15 -3z"/>
<path d="M28552 19406 c4 -5 3 -15 -3 -22 -7 -9 -6 -12 5 -10 25 3 28 12 9 27
-10 7 -15 9 -11 5z"/>
<path d="M28686 19401 c-4 -5 -2 -12 3 -15 5 -4 12 -2 15 3 4 5 2 12 -3 15 -5
4 -12 2 -15 -3z"/>
<path d="M29029 19408 c-6 -25 -6 -37 1 -33 5 3 11 1 15 -5 3 -5 12 -10 18
-10 7 0 4 5 -6 11 -9 6 -15 14 -12 19 3 5 1 11 -5 15 -5 3 -10 5 -11 3z"/>
<path d="M28200 19395 c0 -2 6 -8 13 -14 10 -8 14 -7 14 2 0 8 -6 14 -14 14
-7 0 -13 -1 -13 -2z"/>
<path d="M28383 19385 c0 -6 6 -12 12 -12 6 0 12 6 12 12 0 6 -6 12 -12 12 -6
0 -12 -6 -12 -12z"/>
<path d="M28423 19373 c0 -11 7 -20 14 -20 10 0 10 4 1 16 -7 9 -13 18 -15 20
-1 2 -1 -5 0 -16z"/>
<path d="M28255 19370 c-3 -5 1 -10 10 -10 9 0 13 5 10 10 -3 6 -8 10 -10 10
-2 0 -7 -4 -10 -10z"/>
<path d="M28485 19361 c2 -19 18 -17 21 2 1 8 -4 14 -11 14 -7 0 -12 -7 -10
-16z"/>
<path d="M28663 19365 c0 -8 3 -13 5 -10 3 3 18 -6 32 -20 20 -19 27 -21 27
-10 0 8 -3 13 -5 10 -3 -3 -18 6 -32 20 -20 19 -27 21 -27 10z"/>
<path d="M28523 19344 c0 -6 7 -10 16 -9 9 2 19 4 24 4 18 2 4 17 -16 17 -13
0 -24 -5 -24 -12z"/>
<path d="M28589 19347 c6 -6 18 -12 27 -13 12 -2 14 0 5 9 -6 6 -18 12 -27 13
-12 2 -14 0 -5 -9z"/>
<path d="M28764 19333 c0 -20 15 -34 17 -15 0 4 2 14 4 23 1 9 -3 16 -9 16 -7
0 -12 -11 -12 -24z"/>
<path d="M28802 19336 c1 -14 5 -23 9 -20 7 4 0 44 -7 44 -2 0 -3 -11 -2 -24z"/>
<path d="M29045 19341 c-3 -5 -2 -12 3 -15 5 -3 9 1 9 9 0 17 -3 19 -12 6z"/>
</g>
</svg>
